<svg width="270" height="271" viewBox="0 0 270 271" fill="none" xmlns="http://www.w3.org/2000/svg">
<rect width="270" height="271" rx="10" fill="#E5EEFC"/>
<path d="M121.066 42.8809H63.811V54.7446L67.1311 56.6559L94.2546 72.3193L67.1311 87.9751L63.811 89.8864V103.76H124.698V42.8733H121.066V42.8809Z" stroke="#0064FF" stroke-width="3.11" stroke-linecap="round" stroke-linejoin="round"/>
<path d="M40.0075 41V72.3192L40 103.638L63.811 89.8939V54.7445L40.0075 41Z" stroke="#0064FF" stroke-width="3.11" stroke-linecap="round" stroke-linejoin="round"/>
<path d="M67.1311 87.9827L94.2546 72.3193L67.1311 56.6635V56.6559L63.811 54.7446V89.894L67.1311 87.9827Z" stroke="#0064FF" stroke-width="2.82" stroke-linecap="round" stroke-linejoin="round"/>
<path d="M35.208 168.688C36.888 168.688 38.32 169.304 39.504 170.536C40.688 171.752 41.28 173.24 41.28 175C41.28 176.76 40.688 178.256 39.504 179.488C38.32 180.704 36.888 181.312 35.208 181.312C33.224 181.312 31.712 180.52 30.672 178.936V185.8H28.584V169H30.672V171.064C31.712 169.48 33.224 168.688 35.208 168.688ZM34.944 179.296C36.144 179.296 37.152 178.888 37.968 178.072C38.784 177.24 39.192 176.216 39.192 175C39.192 173.784 38.784 172.768 37.968 171.952C37.152 171.12 36.144 170.704 34.944 170.704C33.728 170.704 32.712 171.12 31.896 171.952C31.08 172.768 30.672 173.784 30.672 175C30.672 176.216 31.08 177.24 31.896 178.072C32.712 178.888 33.728 179.296 34.944 179.296ZM45.8595 171.016C46.5475 169.528 47.7955 168.784 49.6035 168.784V170.968C48.5795 170.92 47.6995 171.192 46.9635 171.784C46.2275 172.376 45.8595 173.328 45.8595 174.64V181H43.7715V169H45.8595V171.016ZM61.1183 179.488C59.8863 180.704 58.3903 181.312 56.6303 181.312C54.8703 181.312 53.3743 180.704 52.1423 179.488C50.9263 178.272 50.3183 176.776 50.3183 175C50.3183 173.224 50.9263 171.728 52.1423 170.512C53.3743 169.296 54.8703 168.688 56.6303 168.688C58.3903 168.688 59.8863 169.296 61.1183 170.512C62.3503 171.728 62.9662 173.224 62.9662 175C62.9662 176.776 62.3503 178.272 61.1183 179.488ZM56.6303 179.272C57.8303 179.272 58.8383 178.864 59.6543 178.048C60.4703 177.232 60.8783 176.216 60.8783 175C60.8783 173.784 60.4703 172.768 59.6543 171.952C58.8383 171.136 57.8303 170.728 56.6303 170.728C55.4463 170.728 54.4463 171.136 53.6303 171.952C52.8143 172.768 52.4062 173.784 52.4062 175C52.4062 176.216 52.8143 177.232 53.6303 178.048C54.4463 178.864 55.4463 179.272 56.6303 179.272ZM71.0678 181.312C69.2598 181.312 67.7558 180.712 66.5558 179.512C65.3558 178.296 64.7558 176.792 64.7558 175C64.7558 173.208 65.3558 171.712 66.5558 170.512C67.7558 169.296 69.2598 168.688 71.0678 168.688C72.2518 168.688 73.3158 168.976 74.2598 169.552C75.2038 170.112 75.9078 170.872 76.3718 171.832L74.6198 172.84C74.3158 172.2 73.8438 171.688 73.2038 171.304C72.5798 170.92 71.8678 170.728 71.0678 170.728C69.8678 170.728 68.8598 171.136 68.0438 171.952C67.2438 172.768 66.8438 173.784 66.8438 175C66.8438 176.2 67.2438 177.208 68.0438 178.024C68.8598 178.84 69.8678 179.248 71.0678 179.248C71.8678 179.248 72.5878 179.064 73.2278 178.696C73.8678 178.312 74.3558 177.8 74.6918 177.16L76.4678 178.192C75.9558 179.136 75.2198 179.896 74.2598 180.472C73.2998 181.032 72.2358 181.312 71.0678 181.312ZM79.8293 175.96C80.0373 177.032 80.5253 177.864 81.2933 178.456C82.0773 179.048 83.0373 179.344 84.1733 179.344C85.7573 179.344 86.9093 178.76 87.6293 177.592L89.4053 178.6C88.2373 180.408 86.4773 181.312 84.1253 181.312C82.2213 181.312 80.6693 180.72 79.4693 179.536C78.2853 178.336 77.6933 176.824 77.6933 175C77.6933 173.192 78.2773 171.688 79.4453 170.488C80.6133 169.288 82.1253 168.688 83.9813 168.688C85.7413 168.688 87.1733 169.312 88.2773 170.56C89.3973 171.792 89.9573 173.28 89.9573 175.024C89.9573 175.328 89.9333 175.64 89.8853 175.96H79.8293ZM83.9813 170.656C82.8613 170.656 81.9333 170.976 81.1973 171.616C80.4613 172.24 80.0053 173.08 79.8293 174.136H87.8453C87.6693 173 87.2213 172.136 86.5013 171.544C85.7813 170.952 84.9413 170.656 83.9813 170.656ZM93.6887 172.24C93.6887 172.704 93.9207 173.08 94.3847 173.368C94.8487 173.64 95.4087 173.864 96.0647 174.04C96.7207 174.2 97.3767 174.392 98.0327 174.616C98.6887 174.824 99.2487 175.192 99.7127 175.72C100.177 176.232 100.409 176.896 100.409 177.712C100.409 178.8 99.9847 179.672 99.1367 180.328C98.3047 180.984 97.2327 181.312 95.9207 181.312C94.7527 181.312 93.7527 181.056 92.9207 180.544C92.0887 180.032 91.4967 179.352 91.1447 178.504L92.9447 177.472C93.1367 178.048 93.4967 178.504 94.0247 178.84C94.5527 179.176 95.1847 179.344 95.9207 179.344C96.6087 179.344 97.1767 179.216 97.6247 178.96C98.0727 178.688 98.2967 178.272 98.2967 177.712C98.2967 177.248 98.0647 176.88 97.6007 176.608C97.1367 176.32 96.5767 176.096 95.9207 175.936C95.2647 175.76 94.6087 175.56 93.9527 175.336C93.2967 175.112 92.7367 174.744 92.2727 174.232C91.8087 173.72 91.5767 173.064 91.5767 172.264C91.5767 171.224 91.9767 170.368 92.7767 169.696C93.5927 169.024 94.6087 168.688 95.8247 168.688C96.8007 168.688 97.6647 168.912 98.4167 169.36C99.1847 169.792 99.7607 170.4 100.145 171.184L98.3927 172.168C97.9607 171.144 97.1047 170.632 95.8247 170.632C95.2327 170.632 94.7287 170.776 94.3127 171.064C93.8967 171.336 93.6887 171.728 93.6887 172.24ZM103.931 172.24C103.931 172.704 104.163 173.08 104.627 173.368C105.091 173.64 105.651 173.864 106.307 174.04C106.963 174.2 107.619 174.392 108.275 174.616C108.931 174.824 109.491 175.192 109.955 175.72C110.419 176.232 110.651 176.896 110.651 177.712C110.651 178.8 110.227 179.672 109.379 180.328C108.547 180.984 107.475 181.312 106.163 181.312C104.995 181.312 103.995 181.056 103.163 180.544C102.331 180.032 101.739 179.352 101.387 178.504L103.187 177.472C103.379 178.048 103.739 178.504 104.267 178.84C104.795 179.176 105.427 179.344 106.163 179.344C106.851 179.344 107.419 179.216 107.867 178.96C108.315 178.688 108.539 178.272 108.539 177.712C108.539 177.248 108.307 176.88 107.843 176.608C107.379 176.32 106.819 176.096 106.163 175.936C105.507 175.76 104.851 175.56 104.195 175.336C103.539 175.112 102.979 174.744 102.515 174.232C102.051 173.72 101.819 173.064 101.819 172.264C101.819 171.224 102.219 170.368 103.019 169.696C103.835 169.024 104.851 168.688 106.067 168.688C107.043 168.688 107.907 168.912 108.659 169.36C109.427 169.792 110.003 170.4 110.387 171.184L108.635 172.168C108.203 171.144 107.347 170.632 106.067 170.632C105.475 170.632 104.971 170.776 104.555 171.064C104.139 171.336 103.931 171.728 103.931 172.24ZM41.544 198.688C42.888 198.688 43.976 199.128 44.808 200.008C45.64 200.872 46.056 202.048 46.056 203.536V211H43.968V203.608C43.968 202.68 43.728 201.96 43.248 201.448C42.768 200.936 42.128 200.68 41.328 200.68C40.432 200.68 39.712 200.984 39.168 201.592C38.64 202.184 38.376 203.096 38.376 204.328V211H36.288V203.608C36.288 202.68 36.056 201.96 35.592 201.448C35.144 200.936 34.528 200.68 33.744 200.68C32.864 200.68 32.128 200.984 31.536 201.592C30.96 202.2 30.672 203.112 30.672 204.328V211H28.584V199H30.672V200.608C31.488 199.328 32.68 198.688 34.248 198.688C35.864 198.688 37.04 199.368 37.776 200.728C38.608 199.368 39.864 198.688 41.544 198.688ZM59.0792 209.488C57.8472 210.704 56.3512 211.312 54.5912 211.312C52.8312 211.312 51.3352 210.704 50.1032 209.488C48.8872 208.272 48.2792 206.776 48.2792 205C48.2792 203.224 48.8872 201.728 50.1032 200.512C51.3352 199.296 52.8312 198.688 54.5912 198.688C56.3512 198.688 57.8472 199.296 59.0792 200.512C60.3112 201.728 60.9272 203.224 60.9272 205C60.9272 206.776 60.3112 208.272 59.0792 209.488ZM54.5912 209.272C55.7912 209.272 56.7992 208.864 57.6152 208.048C58.4312 207.232 58.8392 206.216 58.8392 205C58.8392 203.784 58.4312 202.768 57.6152 201.952C56.7992 201.136 55.7912 200.728 54.5912 200.728C53.4072 200.728 52.4072 201.136 51.5912 201.952C50.7752 202.768 50.3672 203.784 50.3672 205C50.3672 206.216 50.7752 207.232 51.5912 208.048C52.4072 208.864 53.4072 209.272 54.5912 209.272ZM73.3247 194.2H75.4127V211H73.3247V208.936C72.2847 210.52 70.7727 211.312 68.7887 211.312C67.1087 211.312 65.6767 210.704 64.4927 209.488C63.3087 208.256 62.7167 206.76 62.7167 205C62.7167 203.24 63.3087 201.752 64.4927 200.536C65.6767 199.304 67.1087 198.688 68.7887 198.688C70.7727 198.688 72.2847 199.48 73.3247 201.064V194.2ZM69.0527 209.296C70.2687 209.296 71.2847 208.888 72.1007 208.072C72.9167 207.24 73.3247 206.216 73.3247 205C73.3247 203.784 72.9167 202.768 72.1007 201.952C71.2847 201.12 70.2687 200.704 69.0527 200.704C67.8527 200.704 66.8447 201.12 66.0287 201.952C65.2127 202.768 64.8047 203.784 64.8047 205C64.8047 206.216 65.2127 207.24 66.0287 208.072C66.8447 208.888 67.8527 209.296 69.0527 209.296ZM80.0402 205.96C80.2482 207.032 80.7362 207.864 81.5042 208.456C82.2882 209.048 83.2482 209.344 84.3842 209.344C85.9682 209.344 87.1202 208.76 87.8402 207.592L89.6162 208.6C88.4482 210.408 86.6882 211.312 84.3362 211.312C82.4322 211.312 80.8802 210.72 79.6802 209.536C78.4962 208.336 77.9042 206.824 77.9042 205C77.9042 203.192 78.4882 201.688 79.6562 200.488C80.8242 199.288 82.3362 198.688 84.1922 198.688C85.9522 198.688 87.3842 199.312 88.4882 200.56C89.6082 201.792 90.1682 203.28 90.1682 205.024C90.1682 205.328 90.1442 205.64 90.0962 205.96H80.0402ZM84.1922 200.656C83.0722 200.656 82.1442 200.976 81.4082 201.616C80.6722 202.24 80.2162 203.08 80.0402 204.136H88.0562C87.8802 203 87.4322 202.136 86.7122 201.544C85.9922 200.952 85.1522 200.656 84.1922 200.656ZM94.6564 201.016C95.3444 199.528 96.5924 198.784 98.4004 198.784V200.968C97.3764 200.92 96.4964 201.192 95.7604 201.784C95.0244 202.376 94.6564 203.328 94.6564 204.64V211H92.5684V199H94.6564V201.016ZM106.419 198.688C107.827 198.688 108.955 199.136 109.803 200.032C110.651 200.912 111.075 202.112 111.075 203.632V211H108.987V203.752C108.987 202.776 108.723 202.024 108.195 201.496C107.667 200.952 106.939 200.68 106.011 200.68C104.971 200.68 104.131 201.008 103.491 201.664C102.851 202.304 102.531 203.296 102.531 204.64V211H100.443V199H102.531V200.728C103.379 199.368 104.675 198.688 106.419 198.688ZM115.046 196.816C114.646 196.816 114.31 196.68 114.038 196.408C113.766 196.136 113.63 195.808 113.63 195.424C113.63 195.04 113.766 194.712 114.038 194.44C114.31 194.152 114.646 194.008 115.046 194.008C115.43 194.008 115.758 194.152 116.03 194.44C116.302 194.712 116.438 195.04 116.438 195.424C116.438 195.808 116.302 196.136 116.03 196.408C115.758 196.68 115.43 196.816 115.046 196.816ZM113.99 211V199H116.078V211H113.99ZM121.688 209.008H128.072V211H118.832V209.608L124.952 200.992H119.072V199H127.832V200.392L121.688 209.008ZM139.747 199H141.835V211H139.747V208.936C138.707 210.52 137.195 211.312 135.211 211.312C133.531 211.312 132.099 210.704 130.915 209.488C129.731 208.256 129.139 206.76 129.139 205C129.139 203.24 129.731 201.752 130.915 200.536C132.099 199.304 133.531 198.688 135.211 198.688C137.195 198.688 138.707 199.48 139.747 201.064V199ZM135.475 209.296C136.691 209.296 137.707 208.888 138.523 208.072C139.339 207.24 139.747 206.216 139.747 205C139.747 203.784 139.339 202.768 138.523 201.952C137.707 201.12 136.691 200.704 135.475 200.704C134.275 200.704 133.267 201.12 132.451 201.952C131.635 202.768 131.227 203.784 131.227 205C131.227 206.216 131.635 207.24 132.451 208.072C133.267 208.888 134.275 209.296 135.475 209.296ZM151.526 201.016H148.334V207.52C148.334 208.112 148.446 208.536 148.67 208.792C148.91 209.032 149.27 209.16 149.75 209.176C150.23 209.176 150.822 209.16 151.526 209.128V211C149.702 211.24 148.366 211.096 147.518 210.568C146.67 210.024 146.246 209.008 146.246 207.52V201.016H143.87V199H146.246V196.264L148.334 195.64V199H151.526V201.016ZM155.054 196.816C154.654 196.816 154.318 196.68 154.046 196.408C153.774 196.136 153.638 195.808 153.638 195.424C153.638 195.04 153.774 194.712 154.046 194.44C154.318 194.152 154.654 194.008 155.054 194.008C155.438 194.008 155.766 194.152 156.038 194.44C156.31 194.712 156.446 195.04 156.446 195.424C156.446 195.808 156.31 196.136 156.038 196.408C155.766 196.68 155.438 196.816 155.054 196.816ZM153.998 211V199H156.086V211H153.998ZM169.4 209.488C168.168 210.704 166.672 211.312 164.912 211.312C163.152 211.312 161.656 210.704 160.424 209.488C159.208 208.272 158.6 206.776 158.6 205C158.6 203.224 159.208 201.728 160.424 200.512C161.656 199.296 163.152 198.688 164.912 198.688C166.672 198.688 168.168 199.296 169.4 200.512C170.632 201.728 171.247 203.224 171.247 205C171.247 206.776 170.632 208.272 169.4 209.488ZM164.912 209.272C166.112 209.272 167.12 208.864 167.936 208.048C168.752 207.232 169.16 206.216 169.16 205C169.16 203.784 168.752 202.768 167.936 201.952C167.12 201.136 166.112 200.728 164.912 200.728C163.728 200.728 162.728 201.136 161.912 201.952C161.096 202.768 160.688 203.784 160.688 205C160.688 206.216 161.096 207.232 161.912 208.048C162.728 208.864 163.728 209.272 164.912 209.272ZM179.685 198.688C181.093 198.688 182.221 199.136 183.069 200.032C183.917 200.912 184.341 202.112 184.341 203.632V211H182.253V203.752C182.253 202.776 181.989 202.024 181.461 201.496C180.933 200.952 180.205 200.68 179.277 200.68C178.237 200.68 177.397 201.008 176.757 201.664C176.117 202.304 175.797 203.296 175.797 204.64V211H173.709V199H175.797V200.728C176.645 199.368 177.941 198.688 179.685 198.688Z" fill="#0064FF"/>
</svg>
