<svg width="270" height="271" viewBox="0 0 270 271" fill="none" xmlns="http://www.w3.org/2000/svg">
<rect width="270" height="271" rx="10" fill="#E5EEFC"/>
<path d="M115.967 61.5621L76.9872 81.1167L38 61.5621L76.9872 42L115.967 61.5621Z" stroke="#0064FF" stroke-width="3.11" stroke-linecap="round" stroke-linejoin="round"/>
<path d="M115.967 78.9845L76.9872 98.539L38 78.9845" stroke="#0064FF" stroke-width="3.11" stroke-linecap="round" stroke-linejoin="round"/>
<path d="M115.967 96.0642L76.9872 115.626L38 96.0642" stroke="#0064FF" stroke-width="3.11" stroke-linecap="round" stroke-linejoin="round"/>
<path d="M36.52 173.2H38.608V190H36.52V187.936C35.48 189.52 33.968 190.312 31.984 190.312C30.304 190.312 28.872 189.704 27.688 188.488C26.504 187.256 25.912 185.76 25.912 184C25.912 182.24 26.504 180.752 27.688 179.536C28.872 178.304 30.304 177.688 31.984 177.688C33.968 177.688 35.48 178.48 36.52 180.064V173.2ZM32.248 188.296C33.464 188.296 34.48 187.888 35.296 187.072C36.112 186.24 36.52 185.216 36.52 184C36.52 182.784 36.112 181.768 35.296 180.952C34.48 180.12 33.464 179.704 32.248 179.704C31.048 179.704 30.04 180.12 29.224 180.952C28.408 181.768 28 182.784 28 184C28 185.216 28.408 186.24 29.224 187.072C30.04 187.888 31.048 188.296 32.248 188.296ZM51.7075 178H53.7955V190H51.7075V187.936C50.6675 189.52 49.1555 190.312 47.1715 190.312C45.4915 190.312 44.0595 189.704 42.8755 188.488C41.6915 187.256 41.0995 185.76 41.0995 184C41.0995 182.24 41.6915 180.752 42.8755 179.536C44.0595 178.304 45.4915 177.688 47.1715 177.688C49.1555 177.688 50.6675 178.48 51.7075 180.064V178ZM47.4355 188.296C48.6515 188.296 49.6675 187.888 50.4835 187.072C51.2995 186.24 51.7075 185.216 51.7075 184C51.7075 182.784 51.2995 181.768 50.4835 180.952C49.6675 180.12 48.6515 179.704 47.4355 179.704C46.2355 179.704 45.2275 180.12 44.4115 180.952C43.5955 181.768 43.1875 182.784 43.1875 184C43.1875 185.216 43.5955 186.24 44.4115 187.072C45.2275 187.888 46.2355 188.296 47.4355 188.296ZM63.487 180.016H60.295V186.52C60.295 187.112 60.407 187.536 60.631 187.792C60.871 188.032 61.231 188.16 61.711 188.176C62.191 188.176 62.783 188.16 63.487 188.128V190C61.663 190.24 60.327 190.096 59.479 189.568C58.631 189.024 58.207 188.008 58.207 186.52V180.016H55.831V178H58.207V175.264L60.295 174.64V178H63.487V180.016ZM75.2856 178H77.3736V190H75.2856V187.936C74.2456 189.52 72.7336 190.312 70.7496 190.312C69.0696 190.312 67.6376 189.704 66.4536 188.488C65.2696 187.256 64.6776 185.76 64.6776 184C64.6776 182.24 65.2696 180.752 66.4536 179.536C67.6376 178.304 69.0696 177.688 70.7496 177.688C72.7336 177.688 74.2456 178.48 75.2856 180.064V178ZM71.0136 188.296C72.2296 188.296 73.2456 187.888 74.0616 187.072C74.8776 186.24 75.2856 185.216 75.2856 184C75.2856 182.784 74.8776 181.768 74.0616 180.952C73.2456 180.12 72.2296 179.704 71.0136 179.704C69.8136 179.704 68.8056 180.12 67.9896 180.952C67.1736 181.768 66.7656 182.784 66.7656 184C66.7656 185.216 67.1736 186.24 67.9896 187.072C68.8056 187.888 69.8136 188.296 71.0136 188.296ZM99.4971 177.688C100.841 177.688 101.929 178.128 102.761 179.008C103.593 179.872 104.009 181.048 104.009 182.536V190H101.921V182.608C101.921 181.68 101.681 180.96 101.201 180.448C100.721 179.936 100.081 179.68 99.2811 179.68C98.3851 179.68 97.6651 179.984 97.1211 180.592C96.5931 181.184 96.3291 182.096 96.3291 183.328V190H94.2411V182.608C94.2411 181.68 94.0091 180.96 93.5451 180.448C93.0971 179.936 92.4811 179.68 91.6971 179.68C90.8171 179.68 90.0811 179.984 89.4891 180.592C88.9131 181.2 88.6251 182.112 88.6251 183.328V190H86.5371V178H88.6251V179.608C89.4411 178.328 90.6331 177.688 92.2011 177.688C93.8171 177.688 94.9931 178.368 95.7291 179.728C96.5611 178.368 97.8171 177.688 99.4971 177.688ZM117.032 188.488C115.8 189.704 114.304 190.312 112.544 190.312C110.784 190.312 109.288 189.704 108.056 188.488C106.84 187.272 106.232 185.776 106.232 184C106.232 182.224 106.84 180.728 108.056 179.512C109.288 178.296 110.784 177.688 112.544 177.688C114.304 177.688 115.8 178.296 117.032 179.512C118.264 180.728 118.88 182.224 118.88 184C118.88 185.776 118.264 187.272 117.032 188.488ZM112.544 188.272C113.744 188.272 114.752 187.864 115.568 187.048C116.384 186.232 116.792 185.216 116.792 184C116.792 182.784 116.384 181.768 115.568 180.952C114.752 180.136 113.744 179.728 112.544 179.728C111.36 179.728 110.36 180.136 109.544 180.952C108.728 181.768 108.32 182.784 108.32 184C108.32 185.216 108.728 186.232 109.544 187.048C110.36 187.864 111.36 188.272 112.544 188.272ZM131.278 173.2H133.366V190H131.278V187.936C130.238 189.52 128.726 190.312 126.742 190.312C125.062 190.312 123.63 189.704 122.446 188.488C121.262 187.256 120.67 185.76 120.67 184C120.67 182.24 121.262 180.752 122.446 179.536C123.63 178.304 125.062 177.688 126.742 177.688C128.726 177.688 130.238 178.48 131.278 180.064V173.2ZM127.006 188.296C128.222 188.296 129.238 187.888 130.054 187.072C130.87 186.24 131.278 185.216 131.278 184C131.278 182.784 130.87 181.768 130.054 180.952C129.238 180.12 128.222 179.704 127.006 179.704C125.806 179.704 124.798 180.12 123.982 180.952C123.166 181.768 122.758 182.784 122.758 184C122.758 185.216 123.166 186.24 123.982 187.072C124.798 187.888 125.806 188.296 127.006 188.296ZM137.993 184.96C138.201 186.032 138.689 186.864 139.457 187.456C140.241 188.048 141.201 188.344 142.337 188.344C143.921 188.344 145.073 187.76 145.793 186.592L147.569 187.6C146.401 189.408 144.641 190.312 142.289 190.312C140.385 190.312 138.833 189.72 137.633 188.536C136.449 187.336 135.857 185.824 135.857 184C135.857 182.192 136.441 180.688 137.609 179.488C138.777 178.288 140.289 177.688 142.145 177.688C143.905 177.688 145.337 178.312 146.441 179.56C147.561 180.792 148.121 182.28 148.121 184.024C148.121 184.328 148.097 184.64 148.049 184.96H137.993ZM142.145 179.656C141.025 179.656 140.097 179.976 139.361 180.616C138.625 181.24 138.169 182.08 137.993 183.136H146.009C145.833 182 145.385 181.136 144.665 180.544C143.945 179.952 143.105 179.656 142.145 179.656ZM152.61 180.016C153.298 178.528 154.546 177.784 156.354 177.784V179.968C155.33 179.92 154.45 180.192 153.714 180.784C152.978 181.376 152.61 182.328 152.61 183.64V190H150.521V178H152.61V180.016ZM164.373 177.688C165.781 177.688 166.909 178.136 167.757 179.032C168.605 179.912 169.029 181.112 169.029 182.632V190H166.941V182.752C166.941 181.776 166.677 181.024 166.149 180.496C165.621 179.952 164.893 179.68 163.965 179.68C162.925 179.68 162.085 180.008 161.445 180.664C160.805 181.304 160.485 182.296 160.485 183.64V190H158.396V178H160.485V179.728C161.333 178.368 162.629 177.688 164.373 177.688ZM172.999 175.816C172.599 175.816 172.263 175.68 171.991 175.408C171.719 175.136 171.583 174.808 171.583 174.424C171.583 174.04 171.719 173.712 171.991 173.44C172.263 173.152 172.599 173.008 172.999 173.008C173.383 173.008 173.711 173.152 173.983 173.44C174.255 173.712 174.391 174.04 174.391 174.424C174.391 174.808 174.255 175.136 173.983 175.408C173.711 175.68 173.383 175.816 172.999 175.816ZM171.943 190V178H174.031V190H171.943ZM179.641 188.008H186.025V190H176.785V188.608L182.905 179.992H177.025V178H185.785V179.392L179.641 188.008ZM197.7 178H199.788V190H197.7V187.936C196.66 189.52 195.148 190.312 193.164 190.312C191.484 190.312 190.052 189.704 188.868 188.488C187.684 187.256 187.092 185.76 187.092 184C187.092 182.24 187.684 180.752 188.868 179.536C190.052 178.304 191.484 177.688 193.164 177.688C195.148 177.688 196.66 178.48 197.7 180.064V178ZM193.428 188.296C194.644 188.296 195.66 187.888 196.476 187.072C197.292 186.24 197.7 185.216 197.7 184C197.7 182.784 197.292 181.768 196.476 180.952C195.66 180.12 194.644 179.704 193.428 179.704C192.228 179.704 191.22 180.12 190.404 180.952C189.588 181.768 189.18 182.784 189.18 184C189.18 185.216 189.588 186.24 190.404 187.072C191.22 187.888 192.228 188.296 193.428 188.296ZM209.479 180.016H206.287V186.52C206.287 187.112 206.399 187.536 206.623 187.792C206.863 188.032 207.223 188.16 207.703 188.176C208.183 188.176 208.775 188.16 209.479 188.128V190C207.655 190.24 206.319 190.096 205.471 189.568C204.623 189.024 204.199 188.008 204.199 186.52V180.016H201.823V178H204.199V175.264L206.287 174.64V178H209.479V180.016ZM213.007 175.816C212.607 175.816 212.271 175.68 211.999 175.408C211.727 175.136 211.591 174.808 211.591 174.424C211.591 174.04 211.727 173.712 211.999 173.44C212.271 173.152 212.607 173.008 213.007 173.008C213.391 173.008 213.719 173.152 213.991 173.44C214.263 173.712 214.399 174.04 214.399 174.424C214.399 174.808 214.263 175.136 213.991 175.408C213.719 175.68 213.391 175.816 213.007 175.816ZM211.951 190V178H214.039V190H211.951ZM227.353 188.488C226.121 189.704 224.625 190.312 222.865 190.312C221.105 190.312 219.609 189.704 218.377 188.488C217.161 187.272 216.553 185.776 216.553 184C216.553 182.224 217.161 180.728 218.377 179.512C219.609 178.296 221.105 177.688 222.865 177.688C224.625 177.688 226.121 178.296 227.353 179.512C228.585 180.728 229.201 182.224 229.201 184C229.201 185.776 228.585 187.272 227.353 188.488ZM222.865 188.272C224.065 188.272 225.073 187.864 225.889 187.048C226.705 186.232 227.113 185.216 227.113 184C227.113 182.784 226.705 181.768 225.889 180.952C225.073 180.136 224.065 179.728 222.865 179.728C221.681 179.728 220.681 180.136 219.865 180.952C219.049 181.768 218.641 182.784 218.641 184C218.641 185.216 219.049 186.232 219.865 187.048C220.681 187.864 221.681 188.272 222.865 188.272ZM237.638 177.688C239.046 177.688 240.174 178.136 241.022 179.032C241.87 179.912 242.294 181.112 242.294 182.632V190H240.206V182.752C240.206 181.776 239.942 181.024 239.414 180.496C238.886 179.952 238.158 179.68 237.23 179.68C236.19 179.68 235.35 180.008 234.71 180.664C234.07 181.304 233.75 182.296 233.75 183.64V190H231.662V178H233.75V179.728C234.598 178.368 235.894 177.688 237.638 177.688Z" fill="#0064FF"/>
</svg>
