<svg width="270" height="271" viewBox="0 0 270 271" fill="none" xmlns="http://www.w3.org/2000/svg">
<rect width="270" height="271" rx="10" fill="#E5EEFC"/>
<path d="M96.6058 61.2423L63.3143 61.2195L30.0305 61.1966L63.3296 42.0076V42L63.3372 42.0076L96.6058 61.2423ZM96.6058 61.2423V61.2499L96.5981 61.2575L96.6058 61.2423Z" stroke="#0064FF" stroke-width="3.11" stroke-linecap="round" stroke-linejoin="round"/>
<path d="M96.5829 99.6813L96.5753 99.689L63.2839 118.878H63.2762H63.2839L79.9448 90.064L96.5981 61.2576L96.6057 61.25L96.5829 99.6813Z" stroke="#0064FF" stroke-width="3.11" stroke-linecap="round" stroke-linejoin="round"/>
<path d="M96.6057 61.2423L79.9524 70.8444" stroke="#0064FF" stroke-width="3.11" stroke-linecap="round" stroke-linejoin="round"/>
<path d="M46.6533 90.0411L30.0076 99.6356H30L30.0305 61.2043V61.1967" stroke="#0064FF" stroke-width="3.11" stroke-linecap="round" stroke-linejoin="round"/>
<path d="M63.2838 118.878L30.0076 99.6432V99.6356L96.6056 61.2423" stroke="#0064FF" stroke-width="3.11" stroke-linecap="round" stroke-linejoin="round"/>
<path d="M35.752 174.904C33.64 174.728 32.584 175.64 32.584 177.64V178H35.752V180.016H32.584V190H30.496V180.016H28.576V178H30.496V177.64C30.496 176.024 30.944 174.8 31.84 173.968C32.752 173.136 34.056 172.776 35.752 172.888V174.904ZM45.6218 178H47.7098V190H45.6218V188.272C44.7738 189.632 43.4778 190.312 41.7338 190.312C40.3258 190.312 39.1978 189.872 38.3498 188.992C37.5018 188.096 37.0778 186.888 37.0778 185.368V178H39.1658V185.248C39.1658 186.224 39.4298 186.984 39.9578 187.528C40.4858 188.056 41.2138 188.32 42.1418 188.32C43.1818 188.32 44.0218 188 44.6618 187.36C45.3018 186.704 45.6218 185.704 45.6218 184.36V178ZM57.4167 180.016H54.2247V186.52C54.2247 187.112 54.3367 187.536 54.5607 187.792C54.8007 188.032 55.1607 188.16 55.6407 188.176C56.1207 188.176 56.7127 188.16 57.4167 188.128V190C55.5927 190.24 54.2567 190.096 53.4087 189.568C52.5607 189.024 52.1367 188.008 52.1367 186.52V180.016H49.7607V178H52.1367V175.264L54.2247 174.64V178H57.4167V180.016ZM68.239 178H70.327V190H68.239V188.272C67.391 189.632 66.095 190.312 64.351 190.312C62.943 190.312 61.815 189.872 60.967 188.992C60.119 188.096 59.695 186.888 59.695 185.368V178H61.783V185.248C61.783 186.224 62.047 186.984 62.575 187.528C63.103 188.056 63.831 188.32 64.759 188.32C65.799 188.32 66.639 188 67.279 187.36C67.919 186.704 68.239 185.704 68.239 184.36V178ZM75.5939 180.016C76.2819 178.528 77.5299 177.784 79.3379 177.784V179.968C78.3139 179.92 77.4339 180.192 76.6979 180.784C75.9619 181.376 75.5939 182.328 75.5939 183.64V190H73.5059V178H75.5939V180.016ZM82.4369 175.816C82.0369 175.816 81.7009 175.68 81.4289 175.408C81.1569 175.136 81.0209 174.808 81.0209 174.424C81.0209 174.04 81.1569 173.712 81.4289 173.44C81.7009 173.152 82.0369 173.008 82.4369 173.008C82.8209 173.008 83.1489 173.152 83.4209 173.44C83.6929 173.712 83.8289 174.04 83.8289 174.424C83.8289 174.808 83.6929 175.136 83.4209 175.408C83.1489 175.68 82.8209 175.816 82.4369 175.816ZM81.3809 190V178H83.4689V190H81.3809ZM92.8223 174.904C90.7103 174.728 89.6543 175.64 89.6543 177.64V178H92.8223V180.016H89.6543V190H87.5663V180.016H85.6463V178H87.5663V177.64C87.5663 176.024 88.0143 174.8 88.9103 173.968C89.8223 173.136 91.1263 172.776 92.8223 172.888V174.904ZM103.257 178H105.489L100.593 190.744C100.081 192.104 99.3609 193.136 98.4329 193.84C97.5209 194.56 96.4649 194.88 95.2649 194.8V192.856C96.7369 192.968 97.8169 192.152 98.5049 190.408L98.7209 189.952L93.4889 178H95.7209L99.8009 187.408L103.257 178ZM118.872 190.312C117.064 190.312 115.56 189.712 114.36 188.512C113.16 187.296 112.56 185.792 112.56 184C112.56 182.208 113.16 180.712 114.36 179.512C115.56 178.296 117.064 177.688 118.872 177.688C120.056 177.688 121.12 177.976 122.064 178.552C123.008 179.112 123.712 179.872 124.176 180.832L122.424 181.84C122.12 181.2 121.648 180.688 121.008 180.304C120.384 179.92 119.672 179.728 118.872 179.728C117.672 179.728 116.664 180.136 115.848 180.952C115.048 181.768 114.648 182.784 114.648 184C114.648 185.2 115.048 186.208 115.848 187.024C116.664 187.84 117.672 188.248 118.872 188.248C119.672 188.248 120.392 188.064 121.032 187.696C121.672 187.312 122.16 186.8 122.496 186.16L124.272 187.192C123.76 188.136 123.024 188.896 122.064 189.472C121.104 190.032 120.04 190.312 118.872 190.312ZM136.298 188.488C135.066 189.704 133.57 190.312 131.81 190.312C130.05 190.312 128.554 189.704 127.322 188.488C126.106 187.272 125.498 185.776 125.498 184C125.498 182.224 126.106 180.728 127.322 179.512C128.554 178.296 130.05 177.688 131.81 177.688C133.57 177.688 135.066 178.296 136.298 179.512C137.53 180.728 138.146 182.224 138.146 184C138.146 185.776 137.53 187.272 136.298 188.488ZM131.81 188.272C133.01 188.272 134.018 187.864 134.834 187.048C135.65 186.232 136.058 185.216 136.058 184C136.058 182.784 135.65 181.768 134.834 180.952C134.018 180.136 133.01 179.728 131.81 179.728C130.626 179.728 129.626 180.136 128.81 180.952C127.994 181.768 127.586 182.784 127.586 184C127.586 185.216 127.994 186.232 128.81 187.048C129.626 187.864 130.626 188.272 131.81 188.272ZM146.583 177.688C147.991 177.688 149.119 178.136 149.967 179.032C150.815 179.912 151.239 181.112 151.239 182.632V190H149.151V182.752C149.151 181.776 148.887 181.024 148.359 180.496C147.831 179.952 147.103 179.68 146.175 179.68C145.135 179.68 144.295 180.008 143.655 180.664C143.015 181.304 142.695 182.296 142.695 183.64V190H140.607V178H142.695V179.728C143.543 178.368 144.839 177.688 146.583 177.688ZM155.954 181.24C155.954 181.704 156.186 182.08 156.65 182.368C157.114 182.64 157.674 182.864 158.33 183.04C158.986 183.2 159.642 183.392 160.298 183.616C160.954 183.824 161.514 184.192 161.978 184.72C162.442 185.232 162.674 185.896 162.674 186.712C162.674 187.8 162.25 188.672 161.402 189.328C160.57 189.984 159.498 190.312 158.186 190.312C157.018 190.312 156.018 190.056 155.186 189.544C154.354 189.032 153.762 188.352 153.41 187.504L155.21 186.472C155.402 187.048 155.762 187.504 156.29 187.84C156.818 188.176 157.45 188.344 158.186 188.344C158.874 188.344 159.442 188.216 159.89 187.96C160.338 187.688 160.562 187.272 160.562 186.712C160.562 186.248 160.33 185.88 159.866 185.608C159.402 185.32 158.842 185.096 158.186 184.936C157.53 184.76 156.874 184.56 156.218 184.336C155.562 184.112 155.002 183.744 154.538 183.232C154.074 182.72 153.842 182.064 153.842 181.264C153.842 180.224 154.242 179.368 155.042 178.696C155.858 178.024 156.874 177.688 158.09 177.688C159.066 177.688 159.93 177.912 160.682 178.36C161.45 178.792 162.026 179.4 162.41 180.184L160.658 181.168C160.226 180.144 159.37 179.632 158.09 179.632C157.498 179.632 156.994 179.776 156.578 180.064C156.162 180.336 155.954 180.728 155.954 181.24ZM173.309 178H175.397V190H173.309V188.272C172.461 189.632 171.165 190.312 169.421 190.312C168.013 190.312 166.885 189.872 166.037 188.992C165.189 188.096 164.765 186.888 164.765 185.368V178H166.853V185.248C166.853 186.224 167.117 186.984 167.645 187.528C168.173 188.056 168.901 188.32 169.829 188.32C170.869 188.32 171.709 188 172.349 187.36C172.989 186.704 173.309 185.704 173.309 184.36V178ZM178.576 190V172.48H180.664V190H178.576ZM190.378 180.016H187.186V186.52C187.186 187.112 187.298 187.536 187.522 187.792C187.762 188.032 188.122 188.16 188.602 188.176C189.082 188.176 189.674 188.16 190.378 188.128V190C188.554 190.24 187.218 190.096 186.37 189.568C185.522 189.024 185.098 188.008 185.098 186.52V180.016H182.722V178H185.098V175.264L187.186 174.64V178H190.378V180.016ZM193.906 175.816C193.506 175.816 193.17 175.68 192.898 175.408C192.626 175.136 192.49 174.808 192.49 174.424C192.49 174.04 192.626 173.712 192.898 173.44C193.17 173.152 193.506 173.008 193.906 173.008C194.29 173.008 194.618 173.152 194.89 173.44C195.162 173.712 195.298 174.04 195.298 174.424C195.298 174.808 195.162 175.136 194.89 175.408C194.618 175.68 194.29 175.816 193.906 175.816ZM192.85 190V178H194.938V190H192.85ZM204.099 177.688C205.507 177.688 206.635 178.136 207.483 179.032C208.331 179.912 208.755 181.112 208.755 182.632V190H206.667V182.752C206.667 181.776 206.403 181.024 205.875 180.496C205.347 179.952 204.619 179.68 203.691 179.68C202.651 179.68 201.811 180.008 201.171 180.664C200.531 181.304 200.211 182.296 200.211 183.64V190H198.123V178H200.211V179.728C201.059 178.368 202.355 177.688 204.099 177.688ZM221.63 178H223.694V189.496C223.694 191.272 223.094 192.648 221.894 193.624C220.694 194.616 219.254 195.112 217.574 195.112C216.23 195.112 215.07 194.856 214.094 194.344C213.118 193.848 212.382 193.128 211.886 192.184L213.71 191.152C214.366 192.496 215.67 193.168 217.622 193.168C218.87 193.168 219.846 192.84 220.55 192.184C221.27 191.528 221.63 190.632 221.63 189.496V187.792C220.574 189.392 219.07 190.192 217.118 190.192C215.406 190.192 213.958 189.584 212.774 188.368C211.59 187.152 210.998 185.672 210.998 183.928C210.998 182.184 211.59 180.712 212.774 179.512C213.958 178.296 215.406 177.688 217.118 177.688C219.086 177.688 220.59 178.48 221.63 180.064V178ZM214.31 186.976C215.126 187.792 216.142 188.2 217.358 188.2C218.574 188.2 219.59 187.792 220.406 186.976C221.222 186.16 221.63 185.144 221.63 183.928C221.63 182.728 221.222 181.72 220.406 180.904C219.59 180.088 218.574 179.68 217.358 179.68C216.142 179.68 215.126 180.088 214.31 180.904C213.494 181.72 213.086 182.728 213.086 183.928C213.086 185.144 213.494 186.16 214.31 186.976Z" fill="#0064FF"/>
</svg>
