<svg width="270" height="271" viewBox="0 0 270 271" fill="none" xmlns="http://www.w3.org/2000/svg">
<rect width="270" height="271" rx="10" fill="#E5EEFC"/>
<path d="M59.8371 61.3311C52.7325 61.3311 45.6204 64.0419 40.1988 69.4635C29.3555 80.3069 29.3555 97.8968 40.1988 108.74C51.0421 119.583 68.632 119.583 79.4753 108.74C84.897 103.318 87.6078 96.2063 87.6078 89.1018" stroke="#0064FF" stroke-width="3.11" stroke-linecap="round" stroke-linejoin="round"/>
<path d="M79.4753 69.4635C74.0537 64.0419 66.9415 61.3311 59.837 61.3311V89.1018H87.6078C87.6078 81.9973 84.897 74.8852 79.4753 69.4635Z" stroke="#0064FF" stroke-width="3.11" stroke-linecap="round" stroke-linejoin="round"/>
<path d="M59.8293 89.1018H104.931V44L59.8293 44L59.8293 89.1018Z" stroke="#0064FF" stroke-width="3.11" stroke-linecap="round" stroke-linejoin="round"/>
<path d="M39.483 109.456L28 120.939" stroke="#0064FF" stroke-width="3.11" stroke-linecap="round" stroke-linejoin="round"/>
<path d="M40.544 183.688C41.888 183.688 42.976 184.128 43.808 185.008C44.64 185.872 45.056 187.048 45.056 188.536V196H42.968V188.608C42.968 187.68 42.728 186.96 42.248 186.448C41.768 185.936 41.128 185.68 40.328 185.68C39.432 185.68 38.712 185.984 38.168 186.592C37.64 187.184 37.376 188.096 37.376 189.328V196H35.288V188.608C35.288 187.68 35.056 186.96 34.592 186.448C34.144 185.936 33.528 185.68 32.744 185.68C31.864 185.68 31.128 185.984 30.536 186.592C29.96 187.2 29.672 188.112 29.672 189.328V196H27.584V184H29.672V185.608C30.488 184.328 31.68 183.688 33.248 183.688C34.864 183.688 36.04 184.368 36.776 185.728C37.608 184.368 38.864 183.688 40.544 183.688ZM58.0792 194.488C56.8472 195.704 55.3512 196.312 53.5912 196.312C51.8312 196.312 50.3352 195.704 49.1032 194.488C47.8872 193.272 47.2792 191.776 47.2792 190C47.2792 188.224 47.8872 186.728 49.1032 185.512C50.3352 184.296 51.8312 183.688 53.5912 183.688C55.3512 183.688 56.8472 184.296 58.0792 185.512C59.3112 186.728 59.9272 188.224 59.9272 190C59.9272 191.776 59.3112 193.272 58.0792 194.488ZM53.5912 194.272C54.7912 194.272 55.7992 193.864 56.6152 193.048C57.4312 192.232 57.8392 191.216 57.8392 190C57.8392 188.784 57.4312 187.768 56.6152 186.952C55.7992 186.136 54.7912 185.728 53.5912 185.728C52.4072 185.728 51.4072 186.136 50.5912 186.952C49.7752 187.768 49.3672 188.784 49.3672 190C49.3672 191.216 49.7752 192.232 50.5912 193.048C51.4072 193.864 52.4072 194.272 53.5912 194.272ZM72.3247 179.2H74.4127V196H72.3247V193.936C71.2847 195.52 69.7727 196.312 67.7887 196.312C66.1087 196.312 64.6767 195.704 63.4927 194.488C62.3087 193.256 61.7167 191.76 61.7167 190C61.7167 188.24 62.3087 186.752 63.4927 185.536C64.6767 184.304 66.1087 183.688 67.7887 183.688C69.7727 183.688 71.2847 184.48 72.3247 186.064V179.2ZM68.0527 194.296C69.2687 194.296 70.2847 193.888 71.1007 193.072C71.9167 192.24 72.3247 191.216 72.3247 190C72.3247 188.784 71.9167 187.768 71.1007 186.952C70.2847 186.12 69.2687 185.704 68.0527 185.704C66.8527 185.704 65.8447 186.12 65.0287 186.952C64.2127 187.768 63.8047 188.784 63.8047 190C63.8047 191.216 64.2127 192.24 65.0287 193.072C65.8447 193.888 66.8527 194.296 68.0527 194.296ZM79.0402 190.96C79.2482 192.032 79.7362 192.864 80.5042 193.456C81.2882 194.048 82.2482 194.344 83.3842 194.344C84.9682 194.344 86.1202 193.76 86.8402 192.592L88.6162 193.6C87.4482 195.408 85.6882 196.312 83.3362 196.312C81.4322 196.312 79.8802 195.72 78.6802 194.536C77.4962 193.336 76.9042 191.824 76.9042 190C76.9042 188.192 77.4882 186.688 78.6562 185.488C79.8242 184.288 81.3362 183.688 83.1922 183.688C84.9522 183.688 86.3842 184.312 87.4882 185.56C88.6082 186.792 89.1682 188.28 89.1682 190.024C89.1682 190.328 89.1442 190.64 89.0962 190.96H79.0402ZM83.1922 185.656C82.0722 185.656 81.1442 185.976 80.4082 186.616C79.6722 187.24 79.2162 188.08 79.0402 189.136H87.0562C86.8802 188 86.4322 187.136 85.7122 186.544C84.9922 185.952 84.1522 185.656 83.1922 185.656ZM93.6564 186.016C94.3444 184.528 95.5924 183.784 97.4004 183.784V185.968C96.3764 185.92 95.4964 186.192 94.7604 186.784C94.0244 187.376 93.6564 188.328 93.6564 189.64V196H91.5684V184H93.6564V186.016ZM105.419 183.688C106.827 183.688 107.955 184.136 108.803 185.032C109.651 185.912 110.075 187.112 110.075 188.632V196H107.987V188.752C107.987 187.776 107.723 187.024 107.195 186.496C106.667 185.952 105.939 185.68 105.011 185.68C103.971 185.68 103.131 186.008 102.491 186.664C101.851 187.304 101.531 188.296 101.531 189.64V196H99.4434V184H101.531V185.728C102.379 184.368 103.675 183.688 105.419 183.688ZM128.926 184H131.014V196H128.926V193.936C127.886 195.52 126.374 196.312 124.39 196.312C122.71 196.312 121.278 195.704 120.094 194.488C118.91 193.256 118.318 191.76 118.318 190C118.318 188.24 118.91 186.752 120.094 185.536C121.278 184.304 122.71 183.688 124.39 183.688C126.374 183.688 127.886 184.48 128.926 186.064V184ZM124.654 194.296C125.87 194.296 126.886 193.888 127.702 193.072C128.518 192.24 128.926 191.216 128.926 190C128.926 188.784 128.518 187.768 127.702 186.952C126.886 186.12 125.87 185.704 124.654 185.704C123.454 185.704 122.446 186.12 121.63 186.952C120.814 187.768 120.406 188.784 120.406 190C120.406 191.216 120.814 192.24 121.63 193.072C122.446 193.888 123.454 194.296 124.654 194.296ZM140.154 183.688C141.562 183.688 142.69 184.136 143.538 185.032C144.386 185.912 144.81 187.112 144.81 188.632V196H142.722V188.752C142.722 187.776 142.458 187.024 141.93 186.496C141.402 185.952 140.674 185.68 139.746 185.68C138.706 185.68 137.866 186.008 137.226 186.664C136.586 187.304 136.266 188.296 136.266 189.64V196H134.178V184H136.266V185.728C137.114 184.368 138.41 183.688 140.154 183.688ZM157.661 184H159.749V196H157.661V193.936C156.621 195.52 155.109 196.312 153.125 196.312C151.445 196.312 150.013 195.704 148.829 194.488C147.645 193.256 147.053 191.76 147.053 190C147.053 188.24 147.645 186.752 148.829 185.536C150.013 184.304 151.445 183.688 153.125 183.688C155.109 183.688 156.621 184.48 157.661 186.064V184ZM153.389 194.296C154.605 194.296 155.621 193.888 156.437 193.072C157.253 192.24 157.661 191.216 157.661 190C157.661 188.784 157.253 187.768 156.437 186.952C155.621 186.12 154.605 185.704 153.389 185.704C152.189 185.704 151.181 186.12 150.365 186.952C149.549 187.768 149.141 188.784 149.141 190C149.141 191.216 149.549 192.24 150.365 193.072C151.181 193.888 152.189 194.296 153.389 194.296ZM162.912 196V178.48H165V196H162.912ZM176.562 184H178.794L173.898 196.744C173.386 198.104 172.666 199.136 171.738 199.84C170.826 200.56 169.77 200.88 168.57 200.8V198.856C170.042 198.968 171.122 198.152 171.81 196.408L172.026 195.952L166.794 184H169.026L173.106 193.408L176.562 184ZM187.065 186.016H183.873V192.52C183.873 193.112 183.985 193.536 184.209 193.792C184.449 194.032 184.809 194.16 185.289 194.176C185.769 194.176 186.361 194.16 187.065 194.128V196C185.241 196.24 183.905 196.096 183.057 195.568C182.209 195.024 181.785 194.008 181.785 192.52V186.016H179.409V184H181.785V181.264L183.873 180.64V184H187.065V186.016ZM190.593 181.816C190.193 181.816 189.857 181.68 189.585 181.408C189.313 181.136 189.177 180.808 189.177 180.424C189.177 180.04 189.313 179.712 189.585 179.44C189.857 179.152 190.193 179.008 190.593 179.008C190.977 179.008 191.305 179.152 191.577 179.44C191.849 179.712 191.985 180.04 191.985 180.424C191.985 180.808 191.849 181.136 191.577 181.408C191.305 181.68 190.977 181.816 190.593 181.816ZM189.537 196V184H191.625V196H189.537ZM200.451 196.312C198.643 196.312 197.139 195.712 195.939 194.512C194.739 193.296 194.139 191.792 194.139 190C194.139 188.208 194.739 186.712 195.939 185.512C197.139 184.296 198.643 183.688 200.451 183.688C201.635 183.688 202.699 183.976 203.643 184.552C204.587 185.112 205.291 185.872 205.755 186.832L204.003 187.84C203.699 187.2 203.227 186.688 202.587 186.304C201.963 185.92 201.251 185.728 200.451 185.728C199.251 185.728 198.243 186.136 197.427 186.952C196.627 187.768 196.227 188.784 196.227 190C196.227 191.2 196.627 192.208 197.427 193.024C198.243 193.84 199.251 194.248 200.451 194.248C201.251 194.248 201.971 194.064 202.611 193.696C203.251 193.312 203.739 192.8 204.075 192.16L205.851 193.192C205.339 194.136 204.603 194.896 203.643 195.472C202.683 196.032 201.619 196.312 200.451 196.312ZM209.618 187.24C209.618 187.704 209.85 188.08 210.314 188.368C210.778 188.64 211.338 188.864 211.994 189.04C212.65 189.2 213.306 189.392 213.962 189.616C214.618 189.824 215.178 190.192 215.642 190.72C216.106 191.232 216.338 191.896 216.338 192.712C216.338 193.8 215.914 194.672 215.066 195.328C214.234 195.984 213.162 196.312 211.85 196.312C210.682 196.312 209.682 196.056 208.85 195.544C208.018 195.032 207.426 194.352 207.074 193.504L208.874 192.472C209.066 193.048 209.426 193.504 209.954 193.84C210.482 194.176 211.114 194.344 211.85 194.344C212.538 194.344 213.106 194.216 213.554 193.96C214.002 193.688 214.226 193.272 214.226 192.712C214.226 192.248 213.994 191.88 213.53 191.608C213.066 191.32 212.506 191.096 211.85 190.936C211.194 190.76 210.538 190.56 209.882 190.336C209.226 190.112 208.666 189.744 208.202 189.232C207.738 188.72 207.506 188.064 207.506 187.264C207.506 186.224 207.906 185.368 208.706 184.696C209.522 184.024 210.538 183.688 211.754 183.688C212.73 183.688 213.594 183.912 214.346 184.36C215.114 184.792 215.69 185.4 216.074 186.184L214.322 187.168C213.89 186.144 213.034 185.632 211.754 185.632C211.162 185.632 210.658 185.776 210.242 186.064C209.826 186.336 209.618 186.728 209.618 187.24Z" fill="#0064FF"/>
</svg>
