<svg width="270" height="271" viewBox="0 0 270 271" fill="none" xmlns="http://www.w3.org/2000/svg">
<rect width="270" height="271" rx="10" fill="#E5EEFC"/>
<path d="M52.9858 54.7115V63.1334H62.7936V91.8103H52.9858V100.994" stroke="#0064FF" stroke-width="3.11" stroke-linecap="round" stroke-linejoin="round"/>
<path d="M62.7936 77.8527H44.7848" stroke="#0064FF" stroke-width="3.11" stroke-linecap="round" stroke-linejoin="round"/>
<path d="M52.9859 54.7115C55.6942 54.7115 57.8898 52.516 57.8898 49.8077C57.8898 47.0993 55.6942 44.9038 52.9859 44.9038C50.2776 44.9038 48.082 47.0993 48.082 49.8077C48.082 52.516 50.2776 54.7115 52.9859 54.7115Z" stroke="#0064FF" stroke-width="3.11" stroke-linecap="round" stroke-linejoin="round"/>
<path d="M75.3731 49.8077C78.0814 49.8077 80.277 47.6122 80.277 44.9039C80.277 42.1955 78.0814 40 75.3731 40C72.6648 40 70.4692 42.1955 70.4692 44.9039C70.4692 47.6122 72.6648 49.8077 75.3731 49.8077Z" stroke="#0064FF" stroke-width="3.11" stroke-linecap="round" stroke-linejoin="round"/>
<path d="M75.3731 114.822C72.6623 114.822 70.4692 112.629 70.4692 109.918C70.4692 107.207 72.6623 105.014 75.3731 105.014C78.0839 105.014 80.277 107.207 80.277 109.918C80.277 112.629 78.0839 114.822 75.3731 114.822Z" stroke="#0064FF" stroke-width="3.11" stroke-linecap="round" stroke-linejoin="round"/>
<path d="M52.9859 110.801C55.6942 110.801 57.8898 108.606 57.8898 105.898C57.8898 103.189 55.6942 100.994 52.9859 100.994C50.2776 100.994 48.082 103.189 48.082 105.898C48.082 108.606 50.2776 110.801 52.9859 110.801Z" stroke="#0064FF" stroke-width="3.11" stroke-linecap="round" stroke-linejoin="round"/>
<path d="M39.9039 82.7566C42.6122 82.7566 44.8077 80.561 44.8077 77.8527C44.8077 75.1444 42.6122 72.9489 39.9039 72.9489C37.1955 72.9489 35 75.1444 35 77.8527C35 80.561 37.1955 82.7566 39.9039 82.7566Z" stroke="#0064FF" stroke-width="3.11" stroke-linecap="round" stroke-linejoin="round"/>
<path d="M97.7602 54.7115V63.1334H87.9525V91.8103H97.7602V100.994" stroke="#0064FF" stroke-width="3.11" stroke-linecap="round" stroke-linejoin="round"/>
<path d="M87.9525 77.8527H105.931" stroke="#0064FF" stroke-width="3.11" stroke-linecap="round" stroke-linejoin="round"/>
<path d="M97.7603 54.7115C100.469 54.7115 102.664 52.516 102.664 49.8077C102.664 47.0993 100.469 44.9038 97.7603 44.9038C95.052 44.9038 92.8564 47.0993 92.8564 49.8077C92.8564 52.516 95.052 54.7115 97.7603 54.7115Z" stroke="#0064FF" stroke-width="3.11" stroke-linecap="round" stroke-linejoin="round"/>
<path d="M97.7603 110.801C100.469 110.801 102.664 108.606 102.664 105.898C102.664 103.189 100.469 100.994 97.7603 100.994C95.052 100.994 92.8564 103.189 92.8564 105.898C92.8564 108.606 95.052 110.801 97.7603 110.801Z" stroke="#0064FF" stroke-width="3.11" stroke-linecap="round" stroke-linejoin="round"/>
<path d="M110.835 82.7566C113.543 82.7566 115.738 80.561 115.738 77.8527C115.738 75.1444 113.543 72.9489 110.835 72.9489C108.126 72.9489 105.931 75.1444 105.931 77.8527C105.931 80.561 108.126 82.7566 110.835 82.7566Z" stroke="#0064FF" stroke-width="3.11" stroke-linecap="round" stroke-linejoin="round"/>
<path d="M75.373 49.8077V105.014" stroke="#0064FF" stroke-width="3.11" stroke-linecap="round" stroke-linejoin="round"/>
<path d="M42.52 178H44.608V190H42.52V187.936C41.48 189.52 39.968 190.312 37.984 190.312C36.304 190.312 34.872 189.704 33.688 188.488C32.504 187.256 31.912 185.76 31.912 184C31.912 182.24 32.504 180.752 33.688 179.536C34.872 178.304 36.304 177.688 37.984 177.688C39.968 177.688 41.48 178.48 42.52 180.064V178ZM38.248 188.296C39.464 188.296 40.48 187.888 41.296 187.072C42.112 186.24 42.52 185.216 42.52 184C42.52 182.784 42.112 181.768 41.296 180.952C40.48 180.12 39.464 179.704 38.248 179.704C37.048 179.704 36.04 180.12 35.224 180.952C34.408 181.768 34 182.784 34 184C34 185.216 34.408 186.24 35.224 187.072C36.04 187.888 37.048 188.296 38.248 188.296ZM54.3955 177.688C56.0755 177.688 57.5075 178.304 58.6915 179.536C59.8755 180.752 60.4675 182.24 60.4675 184C60.4675 185.76 59.8755 187.256 58.6915 188.488C57.5075 189.704 56.0755 190.312 54.3955 190.312C52.4115 190.312 50.8995 189.52 49.8595 187.936V194.8H47.7715V178H49.8595V180.064C50.8995 178.48 52.4115 177.688 54.3955 177.688ZM54.1315 188.296C55.3315 188.296 56.3395 187.888 57.1555 187.072C57.9715 186.24 58.3795 185.216 58.3795 184C58.3795 182.784 57.9715 181.768 57.1555 180.952C56.3395 180.12 55.3315 179.704 54.1315 179.704C52.9155 179.704 51.8995 180.12 51.0835 180.952C50.2675 181.768 49.8595 182.784 49.8595 184C49.8595 185.216 50.2675 186.24 51.0835 187.072C51.8995 187.888 52.9155 188.296 54.1315 188.296ZM69.583 177.688C71.263 177.688 72.695 178.304 73.879 179.536C75.063 180.752 75.655 182.24 75.655 184C75.655 185.76 75.063 187.256 73.879 188.488C72.695 189.704 71.263 190.312 69.583 190.312C67.599 190.312 66.087 189.52 65.047 187.936V194.8H62.959V178H65.047V180.064C66.087 178.48 67.599 177.688 69.583 177.688ZM69.319 188.296C70.519 188.296 71.527 187.888 72.343 187.072C73.159 186.24 73.567 185.216 73.567 184C73.567 182.784 73.159 181.768 72.343 180.952C71.527 180.12 70.519 179.704 69.319 179.704C68.103 179.704 67.087 180.12 66.271 180.952C65.455 181.768 65.047 182.784 65.047 184C65.047 185.216 65.455 186.24 66.271 187.072C67.087 187.888 68.103 188.296 69.319 188.296ZM78.1465 190V172.48H80.2345V190H78.1465ZM84.4759 175.816C84.0759 175.816 83.7399 175.68 83.4679 175.408C83.1959 175.136 83.0599 174.808 83.0599 174.424C83.0599 174.04 83.1959 173.712 83.4679 173.44C83.7399 173.152 84.0759 173.008 84.4759 173.008C84.8599 173.008 85.1879 173.152 85.4599 173.44C85.7319 173.712 85.8679 174.04 85.8679 174.424C85.8679 174.808 85.7319 175.136 85.4599 175.408C85.1879 175.68 84.8599 175.816 84.4759 175.816ZM83.4199 190V178H85.5079V190H83.4199ZM90.1574 184.96C90.3654 186.032 90.8534 186.864 91.6214 187.456C92.4054 188.048 93.3654 188.344 94.5014 188.344C96.0854 188.344 97.2374 187.76 97.9574 186.592L99.7334 187.6C98.5654 189.408 96.8054 190.312 94.4534 190.312C92.5494 190.312 90.9974 189.72 89.7974 188.536C88.6134 187.336 88.0214 185.824 88.0214 184C88.0214 182.192 88.6054 180.688 89.7734 179.488C90.9414 178.288 92.4534 177.688 94.3094 177.688C96.0694 177.688 97.5014 178.312 98.6054 179.56C99.7254 180.792 100.285 182.28 100.285 184.024C100.285 184.328 100.261 184.64 100.213 184.96H90.1574ZM94.3094 179.656C93.1894 179.656 92.2614 179.976 91.5254 180.616C90.7894 181.24 90.3334 182.08 90.1574 183.136H98.1734C97.9974 182 97.5494 181.136 96.8294 180.544C96.1094 179.952 95.2694 179.656 94.3094 179.656ZM112.598 173.2H114.686V190H112.598V187.936C111.558 189.52 110.046 190.312 108.062 190.312C106.382 190.312 104.95 189.704 103.766 188.488C102.582 187.256 101.99 185.76 101.99 184C101.99 182.24 102.582 180.752 103.766 179.536C104.95 178.304 106.382 177.688 108.062 177.688C110.046 177.688 111.558 178.48 112.598 180.064V173.2ZM108.326 188.296C109.542 188.296 110.558 187.888 111.374 187.072C112.19 186.24 112.598 185.216 112.598 184C112.598 182.784 112.19 181.768 111.374 180.952C110.558 180.12 109.542 179.704 108.326 179.704C107.126 179.704 106.118 180.12 105.302 180.952C104.486 181.768 104.078 182.784 104.078 184C104.078 185.216 104.486 186.24 105.302 187.072C106.118 187.888 107.126 188.296 108.326 188.296ZM135.13 190L133.762 186.232H126.202L124.834 190H122.458L128.722 173.2H131.242L137.506 190H135.13ZM126.97 184.144H132.994L129.97 175.864L126.97 184.144ZM139.488 173.2H141.72V190H139.488V173.2Z" fill="#0064FF"/>
</svg>
