<svg width="270" height="271" viewBox="0 0 270 271" fill="none" xmlns="http://www.w3.org/2000/svg">
<rect width="270" height="271" rx="10" fill="#E5EEFC"/>
<path d="M60.0706 101.727L90.7425 44.0458" stroke="#0064FF" stroke-width="2.87" stroke-linecap="round" stroke-linejoin="round"/>
<path d="M98.2583 101.803L122.755 72.8977L98.2735 44L98.2583 44.0228" stroke="#0064FF" stroke-width="2.87" stroke-linecap="round" stroke-linejoin="round"/>
<path d="M51.4584 44.0077L27 72.875L51.4508 101.727L51.4584 101.712" stroke="#0064FF" stroke-width="2.87" stroke-linecap="round" stroke-linejoin="round"/>
<path d="M39.544 168.688C40.888 168.688 41.976 169.128 42.808 170.008C43.64 170.872 44.056 172.048 44.056 173.536V181H41.968V173.608C41.968 172.68 41.728 171.96 41.248 171.448C40.768 170.936 40.128 170.68 39.328 170.68C38.432 170.68 37.712 170.984 37.168 171.592C36.64 172.184 36.376 173.096 36.376 174.328V181H34.288V173.608C34.288 172.68 34.056 171.96 33.592 171.448C33.144 170.936 32.528 170.68 31.744 170.68C30.864 170.68 30.128 170.984 29.536 171.592C28.96 172.2 28.672 173.112 28.672 174.328V181H26.584V169H28.672V170.608C29.488 169.328 30.68 168.688 32.248 168.688C33.864 168.688 35.04 169.368 35.776 170.728C36.608 169.368 37.864 168.688 39.544 168.688ZM57.0792 179.488C55.8472 180.704 54.3512 181.312 52.5912 181.312C50.8312 181.312 49.3352 180.704 48.1032 179.488C46.8872 178.272 46.2792 176.776 46.2792 175C46.2792 173.224 46.8872 171.728 48.1032 170.512C49.3352 169.296 50.8312 168.688 52.5912 168.688C54.3512 168.688 55.8472 169.296 57.0792 170.512C58.3112 171.728 58.9272 173.224 58.9272 175C58.9272 176.776 58.3112 178.272 57.0792 179.488ZM52.5912 179.272C53.7912 179.272 54.7992 178.864 55.6152 178.048C56.4312 177.232 56.8392 176.216 56.8392 175C56.8392 173.784 56.4312 172.768 55.6152 171.952C54.7992 171.136 53.7912 170.728 52.5912 170.728C51.4072 170.728 50.4072 171.136 49.5912 171.952C48.7752 172.768 48.3672 173.784 48.3672 175C48.3672 176.216 48.7752 177.232 49.5912 178.048C50.4072 178.864 51.4072 179.272 52.5912 179.272ZM71.3247 164.2H73.4127V181H71.3247V178.936C70.2847 180.52 68.7727 181.312 66.7887 181.312C65.1087 181.312 63.6767 180.704 62.4927 179.488C61.3087 178.256 60.7167 176.76 60.7167 175C60.7167 173.24 61.3087 171.752 62.4927 170.536C63.6767 169.304 65.1087 168.688 66.7887 168.688C68.7727 168.688 70.2847 169.48 71.3247 171.064V164.2ZM67.0527 179.296C68.2687 179.296 69.2847 178.888 70.1007 178.072C70.9167 177.24 71.3247 176.216 71.3247 175C71.3247 173.784 70.9167 172.768 70.1007 171.952C69.2847 171.12 68.2687 170.704 67.0527 170.704C65.8527 170.704 64.8447 171.12 64.0287 171.952C63.2127 172.768 62.8047 173.784 62.8047 175C62.8047 176.216 63.2127 177.24 64.0287 178.072C64.8447 178.888 65.8527 179.296 67.0527 179.296ZM78.0402 175.96C78.2482 177.032 78.7362 177.864 79.5042 178.456C80.2882 179.048 81.2482 179.344 82.3842 179.344C83.9682 179.344 85.1202 178.76 85.8402 177.592L87.6162 178.6C86.4482 180.408 84.6882 181.312 82.3362 181.312C80.4322 181.312 78.8802 180.72 77.6802 179.536C76.4962 178.336 75.9042 176.824 75.9042 175C75.9042 173.192 76.4882 171.688 77.6562 170.488C78.8242 169.288 80.3362 168.688 82.1922 168.688C83.9522 168.688 85.3842 169.312 86.4882 170.56C87.6082 171.792 88.1682 173.28 88.1682 175.024C88.1682 175.328 88.1442 175.64 88.0962 175.96H78.0402ZM82.1922 170.656C81.0722 170.656 80.1442 170.976 79.4082 171.616C78.6722 172.24 78.2162 173.08 78.0402 174.136H86.0562C85.8802 173 85.4322 172.136 84.7122 171.544C83.9922 170.952 83.1522 170.656 82.1922 170.656ZM92.6564 171.016C93.3444 169.528 94.5924 168.784 96.4004 168.784V170.968C95.3764 170.92 94.4964 171.192 93.7604 171.784C93.0244 172.376 92.6564 173.328 92.6564 174.64V181H90.5684V169H92.6564V171.016ZM104.419 168.688C105.827 168.688 106.955 169.136 107.803 170.032C108.651 170.912 109.075 172.112 109.075 173.632V181H106.987V173.752C106.987 172.776 106.723 172.024 106.195 171.496C105.667 170.952 104.939 170.68 104.011 170.68C102.971 170.68 102.131 171.008 101.491 171.664C100.851 172.304 100.531 173.296 100.531 174.64V181H98.4434V169H100.531V170.728C101.379 169.368 102.675 168.688 104.419 168.688ZM119.79 172.24C119.79 172.704 120.022 173.08 120.486 173.368C120.95 173.64 121.51 173.864 122.166 174.04C122.822 174.2 123.478 174.392 124.134 174.616C124.79 174.824 125.35 175.192 125.814 175.72C126.278 176.232 126.51 176.896 126.51 177.712C126.51 178.8 126.086 179.672 125.238 180.328C124.406 180.984 123.334 181.312 122.022 181.312C120.854 181.312 119.854 181.056 119.022 180.544C118.19 180.032 117.598 179.352 117.246 178.504L119.046 177.472C119.238 178.048 119.598 178.504 120.126 178.84C120.654 179.176 121.286 179.344 122.022 179.344C122.71 179.344 123.278 179.216 123.726 178.96C124.174 178.688 124.398 178.272 124.398 177.712C124.398 177.248 124.166 176.88 123.702 176.608C123.238 176.32 122.678 176.096 122.022 175.936C121.366 175.76 120.71 175.56 120.054 175.336C119.398 175.112 118.838 174.744 118.374 174.232C117.91 173.72 117.678 173.064 117.678 172.264C117.678 171.224 118.078 170.368 118.878 169.696C119.694 169.024 120.71 168.688 121.926 168.688C122.902 168.688 123.766 168.912 124.518 169.36C125.286 169.792 125.862 170.4 126.246 171.184L124.494 172.168C124.062 171.144 123.206 170.632 121.926 170.632C121.334 170.632 120.83 170.776 120.414 171.064C119.998 171.336 119.79 171.728 119.79 172.24ZM138.782 179.488C137.55 180.704 136.054 181.312 134.294 181.312C132.534 181.312 131.038 180.704 129.806 179.488C128.59 178.272 127.982 176.776 127.982 175C127.982 173.224 128.59 171.728 129.806 170.512C131.038 169.296 132.534 168.688 134.294 168.688C136.054 168.688 137.55 169.296 138.782 170.512C140.014 171.728 140.63 173.224 140.63 175C140.63 176.776 140.014 178.272 138.782 179.488ZM134.294 179.272C135.494 179.272 136.502 178.864 137.318 178.048C138.134 177.232 138.542 176.216 138.542 175C138.542 173.784 138.134 172.768 137.318 171.952C136.502 171.136 135.494 170.728 134.294 170.728C133.11 170.728 132.11 171.136 131.294 171.952C130.478 172.768 130.07 173.784 130.07 175C130.07 176.216 130.478 177.232 131.294 178.048C132.11 178.864 133.11 179.272 134.294 179.272ZM148.815 165.904C146.703 165.728 145.647 166.64 145.647 168.64V169H148.815V171.016H145.647V181H143.559V171.016H141.639V169H143.559V168.64C143.559 167.024 144.007 165.8 144.903 164.968C145.815 164.136 147.119 163.776 148.815 163.888V165.904ZM157.378 171.016H154.186V177.52C154.186 178.112 154.298 178.536 154.522 178.792C154.762 179.032 155.122 179.16 155.602 179.176C156.082 179.176 156.674 179.16 157.378 179.128V181C155.554 181.24 154.218 181.096 153.37 180.568C152.522 180.024 152.098 179.008 152.098 177.52V171.016H149.722V169H152.098V166.264L154.186 165.64V169H157.378V171.016ZM174.056 169H176.24L172.52 181H170.384L167.576 172.12L164.768 181H162.632L158.912 169H161.096L163.736 178.12L166.568 169H168.584L171.416 178.144L174.056 169ZM187.856 169H189.944V181H187.856V178.936C186.816 180.52 185.304 181.312 183.32 181.312C181.64 181.312 180.208 180.704 179.024 179.488C177.84 178.256 177.248 176.76 177.248 175C177.248 173.24 177.84 171.752 179.024 170.536C180.208 169.304 181.64 168.688 183.32 168.688C185.304 168.688 186.816 169.48 187.856 171.064V169ZM183.584 179.296C184.8 179.296 185.816 178.888 186.632 178.072C187.448 177.24 187.856 176.216 187.856 175C187.856 173.784 187.448 172.768 186.632 171.952C185.816 171.12 184.8 170.704 183.584 170.704C182.384 170.704 181.376 171.12 180.56 171.952C179.744 172.768 179.336 173.784 179.336 175C179.336 176.216 179.744 177.24 180.56 178.072C181.376 178.888 182.384 179.296 183.584 179.296ZM195.195 171.016C195.883 169.528 197.131 168.784 198.939 168.784V170.968C197.915 170.92 197.035 171.192 196.299 171.784C195.563 172.376 195.195 173.328 195.195 174.64V181H193.107V169H195.195V171.016ZM201.79 175.96C201.998 177.032 202.486 177.864 203.254 178.456C204.038 179.048 204.998 179.344 206.134 179.344C207.718 179.344 208.87 178.76 209.59 177.592L211.366 178.6C210.198 180.408 208.438 181.312 206.086 181.312C204.182 181.312 202.63 180.72 201.43 179.536C200.246 178.336 199.654 176.824 199.654 175C199.654 173.192 200.238 171.688 201.406 170.488C202.574 169.288 204.086 168.688 205.942 168.688C207.702 168.688 209.134 169.312 210.238 170.56C211.358 171.792 211.918 173.28 211.918 175.024C211.918 175.328 211.894 175.64 211.846 175.96H201.79ZM205.942 170.656C204.822 170.656 203.894 170.976 203.158 171.616C202.422 172.24 201.966 173.08 201.79 174.136H209.806C209.63 173 209.182 172.136 208.462 171.544C207.742 170.952 206.902 170.656 205.942 170.656ZM28.048 205.96C28.256 207.032 28.744 207.864 29.512 208.456C30.296 209.048 31.256 209.344 32.392 209.344C33.976 209.344 35.128 208.76 35.848 207.592L37.624 208.6C36.456 210.408 34.696 211.312 32.344 211.312C30.44 211.312 28.888 210.72 27.688 209.536C26.504 208.336 25.912 206.824 25.912 205C25.912 203.192 26.496 201.688 27.664 200.488C28.832 199.288 30.344 198.688 32.2 198.688C33.96 198.688 35.392 199.312 36.496 200.56C37.616 201.792 38.176 203.28 38.176 205.024C38.176 205.328 38.152 205.64 38.104 205.96H28.048ZM32.2 200.656C31.08 200.656 30.152 200.976 29.416 201.616C28.68 202.24 28.224 203.08 28.048 204.136H36.064C35.888 203 35.44 202.136 34.72 201.544C34 200.952 33.16 200.656 32.2 200.656ZM46.5522 198.688C47.9602 198.688 49.0882 199.136 49.9362 200.032C50.7842 200.912 51.2082 202.112 51.2082 203.632V211H49.1202V203.752C49.1202 202.776 48.8562 202.024 48.3282 201.496C47.8002 200.952 47.0722 200.68 46.1442 200.68C45.1042 200.68 44.2642 201.008 43.6242 201.664C42.9842 202.304 42.6642 203.296 42.6642 204.64V211H40.5762V199H42.6642V200.728C43.5122 199.368 44.8082 198.688 46.5522 198.688ZM64.0831 199H66.1471V210.496C66.1471 212.272 65.5471 213.648 64.3471 214.624C63.1471 215.616 61.7071 216.112 60.0271 216.112C58.6831 216.112 57.5231 215.856 56.5471 215.344C55.5711 214.848 54.8351 214.128 54.3391 213.184L56.1631 212.152C56.8191 213.496 58.1231 214.168 60.0751 214.168C61.3231 214.168 62.2991 213.84 63.0031 213.184C63.7231 212.528 64.0831 211.632 64.0831 210.496V208.792C63.0271 210.392 61.5231 211.192 59.5711 211.192C57.8591 211.192 56.4111 210.584 55.2271 209.368C54.0431 208.152 53.4511 206.672 53.4511 204.928C53.4511 203.184 54.0431 201.712 55.2271 200.512C56.4111 199.296 57.8591 198.688 59.5711 198.688C61.5391 198.688 63.0431 199.48 64.0831 201.064V199ZM56.7631 207.976C57.5791 208.792 58.5951 209.2 59.8111 209.2C61.0271 209.2 62.0431 208.792 62.8591 207.976C63.6751 207.16 64.0831 206.144 64.0831 204.928C64.0831 203.728 63.6751 202.72 62.8591 201.904C62.0431 201.088 61.0271 200.68 59.8111 200.68C58.5951 200.68 57.5791 201.088 56.7631 201.904C55.9471 202.72 55.5391 203.728 55.5391 204.928C55.5391 206.144 55.9471 207.16 56.7631 207.976ZM70.3666 196.816C69.9666 196.816 69.6306 196.68 69.3586 196.408C69.0866 196.136 68.9506 195.808 68.9506 195.424C68.9506 195.04 69.0866 194.712 69.3586 194.44C69.6306 194.152 69.9666 194.008 70.3666 194.008C70.7506 194.008 71.0786 194.152 71.3506 194.44C71.6226 194.712 71.7586 195.04 71.7586 195.424C71.7586 195.808 71.6226 196.136 71.3506 196.408C71.0786 196.68 70.7506 196.816 70.3666 196.816ZM69.3106 211V199H71.3986V211H69.3106ZM80.56 198.688C81.968 198.688 83.096 199.136 83.944 200.032C84.792 200.912 85.216 202.112 85.216 203.632V211H83.128V203.752C83.128 202.776 82.864 202.024 82.336 201.496C81.808 200.952 81.08 200.68 80.152 200.68C79.112 200.68 78.272 201.008 77.632 201.664C76.992 202.304 76.672 203.296 76.672 204.64V211H74.584V199H76.672V200.728C77.52 199.368 78.816 198.688 80.56 198.688ZM89.5949 205.96C89.8029 207.032 90.2909 207.864 91.0589 208.456C91.8429 209.048 92.8029 209.344 93.9389 209.344C95.5229 209.344 96.6749 208.76 97.3949 207.592L99.1709 208.6C98.0029 210.408 96.2429 211.312 93.8909 211.312C91.9869 211.312 90.4349 210.72 89.2349 209.536C88.0509 208.336 87.4589 206.824 87.4589 205C87.4589 203.192 88.0429 201.688 89.2109 200.488C90.3789 199.288 91.8909 198.688 93.7469 198.688C95.5069 198.688 96.9389 199.312 98.0429 200.56C99.1629 201.792 99.7229 203.28 99.7229 205.024C99.7229 205.328 99.6989 205.64 99.6509 205.96H89.5949ZM93.7469 200.656C92.6269 200.656 91.6989 200.976 90.9629 201.616C90.2269 202.24 89.7709 203.08 89.5949 204.136H97.6109C97.4349 203 96.9869 202.136 96.2669 201.544C95.5469 200.952 94.7069 200.656 93.7469 200.656ZM103.564 205.96C103.772 207.032 104.26 207.864 105.028 208.456C105.812 209.048 106.772 209.344 107.908 209.344C109.492 209.344 110.644 208.76 111.364 207.592L113.14 208.6C111.972 210.408 110.212 211.312 107.86 211.312C105.956 211.312 104.404 210.72 103.204 209.536C102.02 208.336 101.428 206.824 101.428 205C101.428 203.192 102.012 201.688 103.18 200.488C104.348 199.288 105.86 198.688 107.716 198.688C109.476 198.688 110.908 199.312 112.012 200.56C113.132 201.792 113.692 203.28 113.692 205.024C113.692 205.328 113.668 205.64 113.62 205.96H103.564ZM107.716 200.656C106.596 200.656 105.668 200.976 104.932 201.616C104.196 202.24 103.74 203.08 103.564 204.136H111.58C111.404 203 110.956 202.136 110.236 201.544C109.516 200.952 108.676 200.656 107.716 200.656ZM118.18 201.016C118.868 199.528 120.116 198.784 121.924 198.784V200.968C120.9 200.92 120.02 201.192 119.284 201.784C118.548 202.376 118.18 203.328 118.18 204.64V211H116.092V199H118.18V201.016ZM125.023 196.816C124.623 196.816 124.287 196.68 124.015 196.408C123.743 196.136 123.607 195.808 123.607 195.424C123.607 195.04 123.743 194.712 124.015 194.44C124.287 194.152 124.623 194.008 125.023 194.008C125.407 194.008 125.735 194.152 126.007 194.44C126.279 194.712 126.415 195.04 126.415 195.424C126.415 195.808 126.279 196.136 126.007 196.408C125.735 196.68 125.407 196.816 125.023 196.816ZM123.967 211V199H126.055V211H123.967ZM135.216 198.688C136.624 198.688 137.752 199.136 138.6 200.032C139.448 200.912 139.872 202.112 139.872 203.632V211H137.784V203.752C137.784 202.776 137.52 202.024 136.992 201.496C136.464 200.952 135.736 200.68 134.808 200.68C133.768 200.68 132.928 201.008 132.288 201.664C131.648 202.304 131.328 203.296 131.328 204.64V211H129.24V199H131.328V200.728C132.176 199.368 133.472 198.688 135.216 198.688ZM152.747 199H154.811V210.496C154.811 212.272 154.211 213.648 153.011 214.624C151.811 215.616 150.371 216.112 148.691 216.112C147.347 216.112 146.187 215.856 145.211 215.344C144.235 214.848 143.499 214.128 143.003 213.184L144.827 212.152C145.483 213.496 146.787 214.168 148.739 214.168C149.987 214.168 150.963 213.84 151.667 213.184C152.387 212.528 152.747 211.632 152.747 210.496V208.792C151.691 210.392 150.187 211.192 148.235 211.192C146.523 211.192 145.075 210.584 143.891 209.368C142.707 208.152 142.115 206.672 142.115 204.928C142.115 203.184 142.707 201.712 143.891 200.512C145.075 199.296 146.523 198.688 148.235 198.688C150.203 198.688 151.707 199.48 152.747 201.064V199ZM145.427 207.976C146.243 208.792 147.259 209.2 148.475 209.2C149.691 209.2 150.707 208.792 151.523 207.976C152.339 207.16 152.747 206.144 152.747 204.928C152.747 203.728 152.339 202.72 151.523 201.904C150.707 201.088 149.691 200.68 148.475 200.68C147.259 200.68 146.243 201.088 145.427 201.904C144.611 202.72 144.203 203.728 144.203 204.928C144.203 206.144 144.611 207.16 145.427 207.976Z" fill="#0064FF"/>
</svg>
