<svg width="270" height="271" viewBox="0 0 270 271" fill="none" xmlns="http://www.w3.org/2000/svg">
<rect width="270" height="271" rx="10" fill="#E5EEFC"/>
<path d="M80.9504 93.9441C80.9504 93.9441 80.9503 93.8237 81.0725 93.6883C83.1806 90.1136 84.3035 86.1477 84.3035 81.7152C84.3035 72.6695 79.2776 64.7828 71.8382 60.6061C77.1619 52.4259 86.465 47 97.059 47C113.595 47 127 60.2073 127 76.5C127 92.7927 113.595 106 97.059 106H59.6556C46.037 106 35 95.1256 35 81.7076C35 68.2897 46.037 57.4153 59.6556 57.4153C64.0933 57.4153 68.2483 58.5742 71.8458 60.5911" stroke="#0064FF" stroke-width="3.11" stroke-linecap="round" stroke-linejoin="round"/>
<path d="M26.64 175.816C26.24 175.816 25.904 175.68 25.632 175.408C25.36 175.136 25.224 174.808 25.224 174.424C25.224 174.04 25.36 173.712 25.632 173.44C25.904 173.152 26.24 173.008 26.64 173.008C27.024 173.008 27.352 173.152 27.624 173.44C27.896 173.712 28.032 174.04 28.032 174.424C28.032 174.808 27.896 175.136 27.624 175.408C27.352 175.68 27.024 175.816 26.64 175.816ZM25.584 190V178H27.672V190H25.584ZM36.8334 177.688C38.2414 177.688 39.3694 178.136 40.2174 179.032C41.0654 179.912 41.4894 181.112 41.4894 182.632V190H39.4014V182.752C39.4014 181.776 39.1374 181.024 38.6094 180.496C38.0814 179.952 37.3534 179.68 36.4254 179.68C35.3854 179.68 34.5454 180.008 33.9054 180.664C33.2654 181.304 32.9454 182.296 32.9454 183.64V190H30.8574V178H32.9454V179.728C33.7934 178.368 35.0894 177.688 36.8334 177.688ZM50.5723 174.904C48.4603 174.728 47.4043 175.64 47.4043 177.64V178H50.5723V180.016H47.4043V190H45.3163V180.016H43.3963V178H45.3163V177.64C45.3163 176.024 45.7643 174.8 46.6603 173.968C47.5723 173.136 48.8763 172.776 50.5723 172.888V174.904ZM54.2501 180.016C54.9381 178.528 56.1861 177.784 57.9941 177.784V179.968C56.9701 179.92 56.0901 180.192 55.3541 180.784C54.6181 181.376 54.2501 182.328 54.2501 183.64V190H52.1621V178H54.2501V180.016ZM69.3169 178H71.4049V190H69.3169V187.936C68.2769 189.52 66.7649 190.312 64.7809 190.312C63.1009 190.312 61.6689 189.704 60.4849 188.488C59.3009 187.256 58.7089 185.76 58.7089 184C58.7089 182.24 59.3009 180.752 60.4849 179.536C61.6689 178.304 63.1009 177.688 64.7809 177.688C66.7649 177.688 68.2769 178.48 69.3169 180.064V178ZM65.0449 188.296C66.2609 188.296 67.2769 187.888 68.0929 187.072C68.9089 186.24 69.3169 185.216 69.3169 184C69.3169 182.784 68.9089 181.768 68.0929 180.952C67.2769 180.12 66.2609 179.704 65.0449 179.704C63.8449 179.704 62.8369 180.12 62.0209 180.952C61.2049 181.768 60.7969 182.784 60.7969 184C60.7969 185.216 61.2049 186.24 62.0209 187.072C62.8369 187.888 63.8449 188.296 65.0449 188.296ZM93.5284 177.688C94.8724 177.688 95.9604 178.128 96.7924 179.008C97.6244 179.872 98.0404 181.048 98.0404 182.536V190H95.9524V182.608C95.9524 181.68 95.7124 180.96 95.2324 180.448C94.7524 179.936 94.1124 179.68 93.3124 179.68C92.4164 179.68 91.6964 179.984 91.1524 180.592C90.6244 181.184 90.3604 182.096 90.3604 183.328V190H88.2724V182.608C88.2724 181.68 88.0404 180.96 87.5764 180.448C87.1284 179.936 86.5124 179.68 85.7284 179.68C84.8484 179.68 84.1124 179.984 83.5204 180.592C82.9444 181.2 82.6564 182.112 82.6564 183.328V190H80.5684V178H82.6564V179.608C83.4724 178.328 84.6644 177.688 86.2324 177.688C87.8484 177.688 89.0244 178.368 89.7604 179.728C90.5924 178.368 91.8484 177.688 93.5284 177.688ZM111.064 188.488C109.832 189.704 108.336 190.312 106.576 190.312C104.816 190.312 103.32 189.704 102.088 188.488C100.872 187.272 100.264 185.776 100.264 184C100.264 182.224 100.872 180.728 102.088 179.512C103.32 178.296 104.816 177.688 106.576 177.688C108.336 177.688 109.832 178.296 111.064 179.512C112.296 180.728 112.912 182.224 112.912 184C112.912 185.776 112.296 187.272 111.064 188.488ZM106.576 188.272C107.776 188.272 108.784 187.864 109.6 187.048C110.416 186.232 110.824 185.216 110.824 184C110.824 182.784 110.416 181.768 109.6 180.952C108.784 180.136 107.776 179.728 106.576 179.728C105.392 179.728 104.392 180.136 103.576 180.952C102.76 181.768 102.352 182.784 102.352 184C102.352 185.216 102.76 186.232 103.576 187.048C104.392 187.864 105.392 188.272 106.576 188.272ZM125.309 173.2H127.397V190H125.309V187.936C124.269 189.52 122.757 190.312 120.773 190.312C119.093 190.312 117.661 189.704 116.477 188.488C115.293 187.256 114.701 185.76 114.701 184C114.701 182.24 115.293 180.752 116.477 179.536C117.661 178.304 119.093 177.688 120.773 177.688C122.757 177.688 124.269 178.48 125.309 180.064V173.2ZM121.037 188.296C122.253 188.296 123.269 187.888 124.085 187.072C124.901 186.24 125.309 185.216 125.309 184C125.309 182.784 124.901 181.768 124.085 180.952C123.269 180.12 122.253 179.704 121.037 179.704C119.837 179.704 118.829 180.12 118.013 180.952C117.197 181.768 116.789 182.784 116.789 184C116.789 185.216 117.197 186.24 118.013 187.072C118.829 187.888 119.837 188.296 121.037 188.296ZM132.025 184.96C132.233 186.032 132.721 186.864 133.489 187.456C134.273 188.048 135.233 188.344 136.369 188.344C137.953 188.344 139.105 187.76 139.825 186.592L141.601 187.6C140.433 189.408 138.673 190.312 136.321 190.312C134.417 190.312 132.865 189.72 131.665 188.536C130.481 187.336 129.889 185.824 129.889 184C129.889 182.192 130.473 180.688 131.641 179.488C132.809 178.288 134.321 177.688 136.177 177.688C137.937 177.688 139.369 178.312 140.473 179.56C141.593 180.792 142.153 182.28 142.153 184.024C142.153 184.328 142.129 184.64 142.081 184.96H132.025ZM136.177 179.656C135.057 179.656 134.129 179.976 133.393 180.616C132.657 181.24 132.201 182.08 132.025 183.136H140.041C139.865 182 139.417 181.136 138.697 180.544C137.977 179.952 137.137 179.656 136.177 179.656ZM146.641 180.016C147.329 178.528 148.577 177.784 150.385 177.784V179.968C149.361 179.92 148.481 180.192 147.745 180.784C147.009 181.376 146.641 182.328 146.641 183.64V190H144.553V178H146.641V180.016ZM158.404 177.688C159.812 177.688 160.94 178.136 161.788 179.032C162.636 179.912 163.06 181.112 163.06 182.632V190H160.972V182.752C160.972 181.776 160.708 181.024 160.18 180.496C159.652 179.952 158.924 179.68 157.996 179.68C156.956 179.68 156.116 180.008 155.476 180.664C154.836 181.304 154.516 182.296 154.516 183.64V190H152.428V178H154.516V179.728C155.364 178.368 156.66 177.688 158.404 177.688ZM167.031 175.816C166.631 175.816 166.295 175.68 166.023 175.408C165.751 175.136 165.615 174.808 165.615 174.424C165.615 174.04 165.751 173.712 166.023 173.44C166.295 173.152 166.631 173.008 167.031 173.008C167.415 173.008 167.743 173.152 168.015 173.44C168.287 173.712 168.423 174.04 168.423 174.424C168.423 174.808 168.287 175.136 168.015 175.408C167.743 175.68 167.415 175.816 167.031 175.816ZM165.975 190V178H168.063V190H165.975ZM173.672 188.008H180.056V190H170.816V188.608L176.936 179.992H171.056V178H179.816V179.392L173.672 188.008ZM191.731 178H193.819V190H191.731V187.936C190.691 189.52 189.179 190.312 187.195 190.312C185.515 190.312 184.083 189.704 182.899 188.488C181.715 187.256 181.123 185.76 181.123 184C181.123 182.24 181.715 180.752 182.899 179.536C184.083 178.304 185.515 177.688 187.195 177.688C189.179 177.688 190.691 178.48 191.731 180.064V178ZM187.459 188.296C188.675 188.296 189.691 187.888 190.507 187.072C191.323 186.24 191.731 185.216 191.731 184C191.731 182.784 191.323 181.768 190.507 180.952C189.691 180.12 188.675 179.704 187.459 179.704C186.259 179.704 185.251 180.12 184.435 180.952C183.619 181.768 183.211 182.784 183.211 184C183.211 185.216 183.619 186.24 184.435 187.072C185.251 187.888 186.259 188.296 187.459 188.296ZM203.51 180.016H200.318V186.52C200.318 187.112 200.43 187.536 200.654 187.792C200.894 188.032 201.254 188.16 201.734 188.176C202.214 188.176 202.806 188.16 203.51 188.128V190C201.686 190.24 200.35 190.096 199.502 189.568C198.654 189.024 198.23 188.008 198.23 186.52V180.016H195.854V178H198.23V175.264L200.318 174.64V178H203.51V180.016ZM207.038 175.816C206.638 175.816 206.302 175.68 206.03 175.408C205.758 175.136 205.622 174.808 205.622 174.424C205.622 174.04 205.758 173.712 206.03 173.44C206.302 173.152 206.638 173.008 207.038 173.008C207.422 173.008 207.75 173.152 208.022 173.44C208.294 173.712 208.43 174.04 208.43 174.424C208.43 174.808 208.294 175.136 208.022 175.408C207.75 175.68 207.422 175.816 207.038 175.816ZM205.982 190V178H208.07V190H205.982ZM221.384 188.488C220.152 189.704 218.656 190.312 216.896 190.312C215.136 190.312 213.64 189.704 212.408 188.488C211.192 187.272 210.584 185.776 210.584 184C210.584 182.224 211.192 180.728 212.408 179.512C213.64 178.296 215.136 177.688 216.896 177.688C218.656 177.688 220.152 178.296 221.384 179.512C222.616 180.728 223.232 182.224 223.232 184C223.232 185.776 222.616 187.272 221.384 188.488ZM216.896 188.272C218.096 188.272 219.104 187.864 219.92 187.048C220.736 186.232 221.144 185.216 221.144 184C221.144 182.784 220.736 181.768 219.92 180.952C219.104 180.136 218.096 179.728 216.896 179.728C215.712 179.728 214.712 180.136 213.896 180.952C213.08 181.768 212.672 182.784 212.672 184C212.672 185.216 213.08 186.232 213.896 187.048C214.712 187.864 215.712 188.272 216.896 188.272ZM231.669 177.688C233.077 177.688 234.205 178.136 235.053 179.032C235.901 179.912 236.325 181.112 236.325 182.632V190H234.237V182.752C234.237 181.776 233.973 181.024 233.445 180.496C232.917 179.952 232.189 179.68 231.261 179.68C230.221 179.68 229.381 180.008 228.741 180.664C228.101 181.304 227.781 182.296 227.781 183.64V190H225.693V178H227.781V179.728C228.629 178.368 229.925 177.688 231.669 177.688Z" fill="#0064FF"/>
</svg>
