<svg width="270" height="271" viewBox="0 0 270 271" fill="none" xmlns="http://www.w3.org/2000/svg">
<rect width="270" height="271" rx="10" fill="#E5EEFC"/>
<path d="M53.5216 110.322C58.5168 112.819 64.1517 114.228 70.114 114.228C90.6127 114.228 107.228 97.6128 107.228 77.114C107.228 56.6153 90.6127 40 70.114 40C49.6152 40 33 56.6153 33 77.114C33 87.2111 37.0282 96.3639 43.5692 103.057L76.3657 70.5121" stroke="#0064FF" stroke-width="3.11" stroke-linecap="round" stroke-linejoin="round"/>
<path d="M53.2855 70.5121H76.3733V93.3485" stroke="#0064FF" stroke-width="3.11" stroke-linecap="round" stroke-linejoin="round"/>
<path d="M38.72 184H40.904L37.184 196H35.048L32.24 187.12L29.432 196H27.296L23.576 184H25.76L28.4 193.12L31.232 184H33.248L36.08 193.144L38.72 184ZM52.712 194.488C51.48 195.704 49.984 196.312 48.224 196.312C46.464 196.312 44.968 195.704 43.736 194.488C42.52 193.272 41.912 191.776 41.912 190C41.912 188.224 42.52 186.728 43.736 185.512C44.968 184.296 46.464 183.688 48.224 183.688C49.984 183.688 51.48 184.296 52.712 185.512C53.944 186.728 54.56 188.224 54.56 190C54.56 191.776 53.944 193.272 52.712 194.488ZM48.224 194.272C49.424 194.272 50.432 193.864 51.248 193.048C52.064 192.232 52.472 191.216 52.472 190C52.472 188.784 52.064 187.768 51.248 186.952C50.432 186.136 49.424 185.728 48.224 185.728C47.04 185.728 46.04 186.136 45.224 186.952C44.408 187.768 44 188.784 44 190C44 191.216 44.408 192.232 45.224 193.048C46.04 193.864 47.04 194.272 48.224 194.272ZM59.1095 186.016C59.7975 184.528 61.0455 183.784 62.8535 183.784V185.968C61.8295 185.92 60.9495 186.192 60.2135 186.784C59.4775 187.376 59.1095 188.328 59.1095 189.64V196H57.0215V184H59.1095V186.016ZM75.0485 196H72.4565L66.9845 190.312V196H64.8965V179.2H66.9845V189.304L72.1685 184H74.8565L69.1205 189.808L75.0485 196ZM95.9503 183.688C97.2943 183.688 98.3823 184.128 99.2143 185.008C100.046 185.872 100.462 187.048 100.462 188.536V196H98.3743V188.608C98.3743 187.68 98.1343 186.96 97.6543 186.448C97.1743 185.936 96.5343 185.68 95.7343 185.68C94.8383 185.68 94.1183 185.984 93.5743 186.592C93.0463 187.184 92.7823 188.096 92.7823 189.328V196H90.6943V188.608C90.6943 187.68 90.4623 186.96 89.9983 186.448C89.5503 185.936 88.9343 185.68 88.1503 185.68C87.2703 185.68 86.5343 185.984 85.9423 186.592C85.3663 187.2 85.0783 188.112 85.0783 189.328V196H82.9902V184H85.0783V185.608C85.8943 184.328 87.0863 183.688 88.6543 183.688C90.2703 183.688 91.4463 184.368 92.1823 185.728C93.0143 184.368 94.2703 183.688 95.9503 183.688ZM113.485 194.488C112.253 195.704 110.757 196.312 108.997 196.312C107.237 196.312 105.741 195.704 104.509 194.488C103.293 193.272 102.685 191.776 102.685 190C102.685 188.224 103.293 186.728 104.509 185.512C105.741 184.296 107.237 183.688 108.997 183.688C110.757 183.688 112.253 184.296 113.485 185.512C114.717 186.728 115.333 188.224 115.333 190C115.333 191.776 114.717 193.272 113.485 194.488ZM108.997 194.272C110.197 194.272 111.205 193.864 112.021 193.048C112.837 192.232 113.245 191.216 113.245 190C113.245 188.784 112.837 187.768 112.021 186.952C111.205 186.136 110.197 185.728 108.997 185.728C107.813 185.728 106.813 186.136 105.997 186.952C105.181 187.768 104.773 188.784 104.773 190C104.773 191.216 105.181 192.232 105.997 193.048C106.813 193.864 107.813 194.272 108.997 194.272ZM127.731 179.2H129.819V196H127.731V193.936C126.691 195.52 125.179 196.312 123.195 196.312C121.515 196.312 120.083 195.704 118.899 194.488C117.715 193.256 117.123 191.76 117.123 190C117.123 188.24 117.715 186.752 118.899 185.536C120.083 184.304 121.515 183.688 123.195 183.688C125.179 183.688 126.691 184.48 127.731 186.064V179.2ZM123.459 194.296C124.675 194.296 125.691 193.888 126.507 193.072C127.323 192.24 127.731 191.216 127.731 190C127.731 188.784 127.323 187.768 126.507 186.952C125.691 186.12 124.675 185.704 123.459 185.704C122.259 185.704 121.251 186.12 120.435 186.952C119.619 187.768 119.211 188.784 119.211 190C119.211 191.216 119.619 192.24 120.435 193.072C121.251 193.888 122.259 194.296 123.459 194.296ZM134.446 190.96C134.654 192.032 135.142 192.864 135.91 193.456C136.694 194.048 137.654 194.344 138.79 194.344C140.374 194.344 141.526 193.76 142.246 192.592L144.022 193.6C142.854 195.408 141.094 196.312 138.742 196.312C136.838 196.312 135.286 195.72 134.086 194.536C132.902 193.336 132.31 191.824 132.31 190C132.31 188.192 132.894 186.688 134.062 185.488C135.23 184.288 136.742 183.688 138.598 183.688C140.358 183.688 141.79 184.312 142.894 185.56C144.014 186.792 144.574 188.28 144.574 190.024C144.574 190.328 144.55 190.64 144.502 190.96H134.446ZM138.598 185.656C137.478 185.656 136.55 185.976 135.814 186.616C135.078 187.24 134.622 188.08 134.446 189.136H142.462C142.286 188 141.838 187.136 141.118 186.544C140.398 185.952 139.558 185.656 138.598 185.656ZM149.063 186.016C149.751 184.528 150.999 183.784 152.807 183.784V185.968C151.783 185.92 150.903 186.192 150.167 186.784C149.431 187.376 149.063 188.328 149.063 189.64V196H146.975V184H149.063V186.016ZM160.826 183.688C162.234 183.688 163.362 184.136 164.21 185.032C165.058 185.912 165.482 187.112 165.482 188.632V196H163.394V188.752C163.394 187.776 163.13 187.024 162.602 186.496C162.074 185.952 161.346 185.68 160.418 185.68C159.378 185.68 158.538 186.008 157.898 186.664C157.258 187.304 156.938 188.296 156.938 189.64V196H154.85V184H156.938V185.728C157.786 184.368 159.082 183.688 160.826 183.688ZM169.453 181.816C169.053 181.816 168.717 181.68 168.445 181.408C168.173 181.136 168.037 180.808 168.037 180.424C168.037 180.04 168.173 179.712 168.445 179.44C168.717 179.152 169.053 179.008 169.453 179.008C169.837 179.008 170.165 179.152 170.437 179.44C170.709 179.712 170.845 180.04 170.845 180.424C170.845 180.808 170.709 181.136 170.437 181.408C170.165 181.68 169.837 181.816 169.453 181.816ZM168.396 196V184H170.485V196H168.396ZM176.094 194.008H182.478V196H173.238V194.608L179.358 185.992H173.478V184H182.238V185.392L176.094 194.008ZM194.153 184H196.241V196H194.153V193.936C193.113 195.52 191.601 196.312 189.617 196.312C187.937 196.312 186.505 195.704 185.321 194.488C184.137 193.256 183.545 191.76 183.545 190C183.545 188.24 184.137 186.752 185.321 185.536C186.505 184.304 187.937 183.688 189.617 183.688C191.601 183.688 193.113 184.48 194.153 186.064V184ZM189.881 194.296C191.097 194.296 192.113 193.888 192.929 193.072C193.745 192.24 194.153 191.216 194.153 190C194.153 188.784 193.745 187.768 192.929 186.952C192.113 186.12 191.097 185.704 189.881 185.704C188.681 185.704 187.673 186.12 186.857 186.952C186.041 187.768 185.633 188.784 185.633 190C185.633 191.216 186.041 192.24 186.857 193.072C187.673 193.888 188.681 194.296 189.881 194.296ZM205.932 186.016H202.74V192.52C202.74 193.112 202.852 193.536 203.076 193.792C203.316 194.032 203.676 194.16 204.156 194.176C204.636 194.176 205.228 194.16 205.932 194.128V196C204.108 196.24 202.772 196.096 201.924 195.568C201.076 195.024 200.652 194.008 200.652 192.52V186.016H198.276V184H200.652V181.264L202.74 180.64V184H205.932V186.016ZM209.46 181.816C209.06 181.816 208.724 181.68 208.452 181.408C208.18 181.136 208.044 180.808 208.044 180.424C208.044 180.04 208.18 179.712 208.452 179.44C208.724 179.152 209.06 179.008 209.46 179.008C209.844 179.008 210.172 179.152 210.444 179.44C210.716 179.712 210.852 180.04 210.852 180.424C210.852 180.808 210.716 181.136 210.444 181.408C210.172 181.68 209.844 181.816 209.46 181.816ZM208.404 196V184H210.492V196H208.404ZM223.806 194.488C222.574 195.704 221.078 196.312 219.318 196.312C217.558 196.312 216.062 195.704 214.83 194.488C213.614 193.272 213.006 191.776 213.006 190C213.006 188.224 213.614 186.728 214.83 185.512C216.062 184.296 217.558 183.688 219.318 183.688C221.078 183.688 222.574 184.296 223.806 185.512C225.038 186.728 225.654 188.224 225.654 190C225.654 191.776 225.038 193.272 223.806 194.488ZM219.318 194.272C220.518 194.272 221.526 193.864 222.342 193.048C223.158 192.232 223.566 191.216 223.566 190C223.566 188.784 223.158 187.768 222.342 186.952C221.526 186.136 220.518 185.728 219.318 185.728C218.134 185.728 217.134 186.136 216.318 186.952C215.502 187.768 215.094 188.784 215.094 190C215.094 191.216 215.502 192.232 216.318 193.048C217.134 193.864 218.134 194.272 219.318 194.272ZM234.091 183.688C235.499 183.688 236.627 184.136 237.475 185.032C238.323 185.912 238.747 187.112 238.747 188.632V196H236.659V188.752C236.659 187.776 236.395 187.024 235.867 186.496C235.339 185.952 234.611 185.68 233.683 185.68C232.643 185.68 231.803 186.008 231.163 186.664C230.523 187.304 230.203 188.296 230.203 189.64V196H228.115V184H230.203V185.728C231.051 184.368 232.347 183.688 234.091 183.688Z" fill="#0064FF"/>
</svg>
